<svg xmlns="http://www.w3.org/2000/svg" xmlns:xlink="http://www.w3.org/1999/xlink" width="297" height="297" viewBox="0 0 297 297" fill="none">
<g  clip-path="url(#clip-path-Fd1jIs5kSP)">
<path d="M282.72 205.54C282.72 246.635 222.117 279.95 147.36 279.95C72.6034 279.95 12 246.635 12 205.54C12 164.445 72.6034 131.13 147.36 131.13C222.117 131.13 282.72 164.445 282.72 205.54Z"   fill="#B2FED0" >
</path>
<path d="M36.8635 227.139C45.2316 241.471 84.0997 252.877 123.641 252.609L200.647 252.101C240.206 251.838 265.823 240.583 257.857 226.953C249.893 213.323 211.398 202.141 171.856 201.955L93.3711 201.568C53.7831 201.358 28.492 212.813 36.8635 227.139Z"   fill="#50DD89" >
</path>
<path d="M141.381 146.733C139.888 147.484 134.228 153.333 135.548 155.388C136.868 157.443 140.441 158.028 140.441 158.028L168.294 161.04C168.294 161.04 172.807 155.768 176.388 154.258C179.968 152.748 204.051 145.602 210.825 145.602C217.598 145.602 227.012 144.852 227.012 144.852C227.012 144.852 239.989 136.757 237.737 136.378C235.485 135.998 200.66 137.326 197.648 137.698C194.638 138.069 184.663 139.208 183.351 139.769C182.039 140.33 168.673 145.041 160.201 145.792C151.727 146.543 142.874 145.982 141.381 146.733Z" stroke="rgba(29, 29, 29, 1)" stroke-width="1"      fill="#1EBC5D" >
</path>
<path d="M230.199 159.91C230.199 159.91 242.451 183.238 255.231 191.891C255.231 191.891 257.303 192.65 253.54 192.65C249.778 192.65 238.103 180.037 234.341 175.525C230.578 171.013 226.626 168.184 221.733 168.184L214.58 168.184L230.199 159.91Z" stroke="rgba(29, 29, 29, 1)" stroke-width="1"      fill="#1EBC5D" >
</path>
<path d="M223.235 231.291C218.196 232.293 212.973 231.778 208.228 229.812C203.482 227.845 199.426 224.515 196.573 220.243C193.72 215.971 192.198 210.949 192.2 205.812C192.2 198.926 194.935 192.323 199.804 187.454C204.673 182.585 211.276 179.85 218.162 179.85C223.299 179.849 228.321 181.37 232.593 184.223C236.865 187.077 240.195 191.133 242.162 195.878C244.128 200.624 244.643 205.846 243.641 210.885C242.639 215.923 240.166 220.551 236.533 224.183C232.901 227.816 228.273 230.29 223.235 231.291ZM228.662 195.337C226.585 193.26 223.939 191.846 221.059 191.273C218.178 190.699 215.192 190.994 212.479 192.117C209.766 193.241 207.446 195.145 205.815 197.587C204.183 200.029 203.313 202.9 203.313 205.837C203.313 209.775 204.877 213.552 207.661 216.337C210.446 219.121 214.224 220.686 218.162 220.686C221.099 220.686 223.97 219.815 226.412 218.183C228.853 216.552 230.757 214.233 231.881 211.519C233.005 208.806 233.299 205.82 232.726 202.939C232.153 200.059 230.738 197.413 228.662 195.337Z" stroke="rgba(29, 29, 29, 1)" stroke-width="1"    fill-rule="evenodd"  fill="#1D1D1D" >
</path>
<path d="M214.061 215.724C212.101 214.912 210.426 213.538 209.248 211.774C208.069 210.01 207.44 207.937 207.44 205.815C207.44 202.971 208.57 200.243 210.581 198.232C212.592 196.22 215.32 195.09 218.165 195.09C220.286 195.09 222.36 195.719 224.123 196.898C225.887 198.076 227.262 199.751 228.074 201.711C228.885 203.671 229.098 205.827 228.684 207.908C228.27 209.988 227.249 211.899 225.749 213.399C224.249 214.899 222.338 215.92 220.257 216.334C218.177 216.748 216.02 216.536 214.061 215.724ZM223.849 208.173C224.316 207.05 224.439 205.814 224.202 204.621C223.966 203.429 223.381 202.332 222.522 201.472C221.663 200.612 220.568 200.026 219.375 199.788C218.183 199.55 216.947 199.671 215.823 200.136C214.699 200.601 213.739 201.389 213.063 202.4C212.388 203.411 212.027 204.599 212.027 205.815C212.027 207.444 212.673 209.006 213.824 210.159C214.975 211.311 216.536 211.959 218.165 211.962C219.381 211.963 220.57 211.604 221.582 210.93C222.594 210.255 223.383 209.296 223.849 208.173Z" stroke="rgba(29, 29, 29, 1)" stroke-width="1"    fill-rule="evenodd"  fill="#1D1D1D" >
</path>
<path d="M228.657 195.344C226.58 193.267 223.933 191.852 221.052 191.279C218.172 190.706 215.186 191 212.472 192.124C209.758 193.249 207.439 195.152 205.807 197.594C204.175 200.037 203.304 202.908 203.304 205.845C203.304 209.784 204.869 213.562 207.654 216.347C210.439 219.132 214.216 220.696 218.155 220.696C221.093 220.696 223.964 219.825 226.406 218.193C228.848 216.562 230.752 214.242 231.876 211.529C233 208.815 233.294 205.829 232.721 202.948C232.148 200.067 230.734 197.421 228.657 195.344ZM236.455 209.44C235.739 213.055 233.967 216.377 231.362 218.985C228.758 221.593 225.438 223.37 221.824 224.09C218.209 224.811 214.462 224.444 211.056 223.035C207.651 221.625 204.74 219.237 202.691 216.173C200.643 213.109 199.55 209.506 199.55 205.82C199.548 200.883 201.507 196.147 204.996 192.653C208.484 189.16 213.218 187.195 218.155 187.19C221.841 187.186 225.445 188.274 228.512 190.318C231.579 192.362 233.971 195.27 235.385 198.674C236.798 202.078 237.171 205.824 236.455 209.44Z" stroke="rgba(29, 29, 29, 1)" stroke-width="1"    fill-rule="evenodd"  fill="#FFBE9D" >
</path>
<path d="M206.501 169.69L213.84 189.639L210.451 190.95L202.93 171.002L206.501 169.69Z" stroke="rgba(29, 29, 29, 1)" stroke-width="1"      fill="#1D1D1D" >
</path>
<path d="M234.73 201.459C234.73 201.459 224.945 208.603 212.15 209.708C199.354 210.814 186.37 208.958 179.976 207.077C176.058 205.913 172.275 204.337 168.69 202.375L184.497 185.051C184.497 185.051 186.749 181.85 192.021 184.861C197.292 187.872 197.482 191.824 197.482 191.824L213.841 189.637C213.841 189.637 221.555 186.247 227.767 190.949C233.979 195.651 234.73 201.459 234.73 201.459Z" stroke="rgba(29, 29, 29, 1)" stroke-width="1"      fill="#1EBC5D" >
</path>
<path d="M202.927 171L208.38 191.138L192.574 198.29C192.744 195.989 192.221 193.691 191.073 191.69C189.192 188.679 186.742 188.86 186.181 189.215C185.62 189.57 182.23 191.286 182.23 191.286L183.731 179.431L202.927 171Z" stroke="rgba(29, 29, 29, 1)" stroke-width="1"      fill="#1EBC5D" >
</path>
<path d="M52.0266 181.826C55.1762 180.522 58.5523 179.85 61.9617 179.85C67.0986 179.849 72.1212 181.37 76.3932 184.223C80.6653 187.077 83.9952 191.133 85.9616 195.878C87.9281 200.624 88.4433 205.846 87.4414 210.885C86.4395 215.923 83.9661 220.551 80.3334 224.183C76.7012 227.816 72.0728 230.29 67.0347 231.291C61.996 232.293 56.7734 231.778 52.0282 229.812C47.2824 227.845 43.2264 224.515 40.3733 220.243C37.5203 215.971 35.9984 210.949 36 205.812C36 202.402 36.6716 199.026 37.9763 195.877C39.2811 192.727 41.1935 189.865 43.604 187.454C46.0145 185.044 48.877 183.131 52.0266 181.826ZM47.112 205.837C47.112 209.775 48.677 213.552 51.4615 216.337C54.2465 219.121 58.0236 220.686 61.9617 220.686C64.8989 220.686 67.7696 219.815 70.2118 218.183C72.6535 216.552 74.5571 214.233 75.6806 211.519C76.8046 208.806 77.0991 205.82 76.5257 202.939C75.9528 200.059 74.5384 197.413 72.4619 195.337C70.3853 193.26 67.7395 191.846 64.8589 191.273C61.9783 190.699 58.9923 190.994 56.2789 192.117C53.5656 193.241 51.2465 195.145 49.615 197.587C47.9831 200.029 47.112 202.9 47.112 205.837Z" stroke="rgba(29, 29, 29, 1)" stroke-width="1"    fill-rule="evenodd"  fill="#1D1D1D" >
</path>
<path d="M64.0574 216.334C61.9768 216.748 59.8204 216.536 57.8607 215.724C55.9011 214.912 54.226 213.538 53.0476 211.774C51.8691 210.01 51.24 207.937 51.24 205.815C51.24 202.971 52.37 200.243 54.3813 198.232C56.3925 196.22 59.1205 195.09 61.965 195.09C64.0862 195.09 66.1598 195.719 67.9234 196.898C69.6872 198.076 71.0617 199.751 71.8736 201.711C72.6853 203.671 72.8978 205.827 72.4839 207.908C72.0701 209.988 71.0486 211.899 69.5486 213.399C68.0489 214.899 66.1379 215.92 64.0574 216.334ZM57.6244 210.159C58.7752 211.311 60.3363 211.959 61.965 211.962C63.181 211.963 64.37 211.604 65.382 210.93C66.3938 210.255 67.1829 209.296 67.6492 208.173C68.1158 207.05 68.2387 205.814 68.0023 204.621C67.7661 203.429 67.1814 202.332 66.3221 201.472C65.4631 200.612 64.3678 200.026 63.1754 199.788C61.983 199.55 60.7466 199.671 59.6231 200.136C58.4995 200.601 57.5392 201.389 56.8633 202.4C56.1876 203.411 55.8271 204.599 55.8271 205.815C55.8271 207.444 56.4734 209.006 57.6244 210.159Z" stroke="rgba(29, 29, 29, 1)" stroke-width="1"    fill-rule="evenodd"  fill="#1D1D1D" >
</path>
<path d="M65.5944 224.092C61.9806 224.811 58.2348 224.442 54.8307 223.032C51.4263 221.622 48.517 219.234 46.47 216.171C44.4225 213.107 43.3301 209.505 43.3301 205.82C43.3301 200.879 45.2929 196.141 48.7868 192.647C52.2803 189.153 57.019 187.19 61.9601 187.19C65.6447 187.19 69.2466 188.283 72.3102 190.33C75.3741 192.377 77.762 195.287 79.172 198.691C80.5819 202.095 80.9511 205.841 80.232 209.455C79.5133 213.069 77.7389 216.388 75.1333 218.994C72.5281 221.599 69.2083 223.374 65.5944 224.092ZM76.5258 202.948C75.9527 200.067 74.5383 197.421 72.4614 195.344C70.3846 193.267 67.7384 191.852 64.8574 191.279C61.9765 190.706 58.9905 191 56.2768 192.124C53.5632 193.249 51.2437 195.152 49.6117 197.594C47.9798 200.037 47.109 202.908 47.109 205.845C47.109 209.784 48.6735 213.562 51.4587 216.347C54.2439 219.132 58.0213 220.696 61.9601 220.696C64.8973 220.696 67.7685 219.825 70.2109 218.193C72.6533 216.562 74.5566 214.242 75.6807 211.529C76.8048 208.815 77.0988 205.829 76.5258 202.948Z" stroke="rgba(29, 29, 29, 1)" stroke-width="1"    fill-rule="evenodd"  fill="#FFBE9D" >
</path>
<path d="M85.7899 181.658L65.3066 187.96C65.3066 187.96 54.2769 179.629 41.6799 182.558C41.6799 182.558 46.1761 169.732 74.5375 167.48L85.7899 181.658Z" stroke="rgba(29, 29, 29, 1)" stroke-width="1"      fill="#1EBC5D" >
</path>
<path d="M64.7173 205.819L82.37 175.063L78.8559 173.05L61.2032 203.831C60.9977 204.206 60.9457 204.646 61.0579 205.058C61.1703 205.471 61.4383 205.823 61.8054 206.042L62.5149 206.446C62.8917 206.647 63.3319 206.694 63.7426 206.577C64.1534 206.46 64.5028 206.189 64.7173 205.819Z" stroke="rgba(29, 29, 29, 1)" stroke-width="1"      fill="#6E6E6E" >
</path>
<path d="M126.33 211.824C140.249 211.255 157.005 207.501 160.015 207.312C163.027 207.122 166.418 205.431 167.738 204.671C169.057 203.912 172.812 201.478 178.273 195.827C183.735 190.176 187.307 188.303 186.927 181.15C186.927 181.15 229.827 162.332 231.907 160.261C233.986 158.19 238.869 148.595 236.8 146.904C234.729 145.212 226.074 143.323 215.16 144.644C204.244 145.963 180.344 151.417 175.641 154.618C172.927 156.426 170.459 158.577 168.299 161.02L140.446 158.009L138.755 161.037C138.755 161.037 148.73 174.014 148.73 174.955C148.73 175.895 137.626 194.532 137.626 194.532C137.626 194.532 143.458 195.283 147.598 195.473C151.74 195.662 155.314 196.224 155.314 196.224C155.314 196.224 118.428 198.294 112.595 197.915C106.76 197.535 102.999 191.315 102.059 188.88C101.118 186.447 103.569 174.583 101.498 167.43C99.4268 160.277 96.7876 155.575 99.6081 150.683C102.43 145.79 112.224 134.875 112.224 131.707C112.224 128.54 103.94 125.47 103.94 125.47C103.94 125.47 87.3813 133.374 82.8612 136.756C78.3393 140.139 69.1248 147.481 67.6221 149.553C66.1212 151.623 61.7894 158.397 63.292 160.657C64.7929 162.918 65.7674 164.229 66.6825 164.782C67.5977 165.335 71.9453 166.094 74.0162 168.544C76.0871 170.994 93.4041 198.467 93.4041 198.467C93.4041 198.467 99.6081 208.442 100.556 208.442C101.506 208.442 112.412 212.393 126.33 211.824Z" stroke="rgba(29, 29, 29, 1)" stroke-width="1"      fill="#1EBC5D" >
</path>
<path d="M90.5801 181.698L96.7841 176.236C96.7841 176.236 96.6031 170.963 95.4729 168.142C94.3427 165.32 90.5801 156.855 91.7022 153.844C92.8242 150.833 108.805 134.314 108.64 131.865C108.474 129.414 103.937 125.47 103.937 125.47C103.937 125.47 114.852 131.865 114.852 132.994C114.852 134.125 105.629 151.814 104.316 155.577C103.005 159.338 106.949 183.991 107.889 186.631C108.829 189.272 114.291 194.882 114.291 194.882L137.623 194.51L142.036 195.5L147.597 195.451C147.597 195.451 153.991 192.44 155.121 192.25C156.251 192.06 176.39 186.788 179.212 188.488C182.034 190.187 181.093 192.25 179.962 192.613C178.832 192.976 137.433 200.517 136.492 200.517C135.552 200.517 114.852 203.9 107.699 201.268C100.547 198.636 93.5916 188.472 92.0813 185.08L90.5801 181.698Z" stroke="rgba(29, 29, 29, 1)" stroke-width="1"      fill="#1EBC5D" >
</path>
<path d="M101.677 181.357C103.715 181.926 105.753 183.518 107.56 185.366C107.692 185.952 107.807 186.381 107.89 186.628C108.83 189.259 114.292 194.877 114.292 194.877L137.625 194.506L142.039 195.496L147.6 195.446C149.742 195.956 151.839 196.64 153.87 197.492C144.869 199.141 136.899 200.527 136.494 200.527C135.554 200.527 114.853 203.909 107.7 201.278C100.547 198.647 93.5914 188.484 92.0819 185.094L90.5801 181.712C94.1572 180.47 98.028 180.346 101.677 181.357Z" stroke="rgba(29, 29, 29, 1)" stroke-width="1"      fill="#1EBC5D" >
</path>
<path d="M113.907 132.61L103.932 125.466L102.611 123.766C102.611 123.766 97.9085 122.454 97.7186 121.514C97.5877 118.658 97.9051 115.799 98.6592 113.041C98.9159 112.073 99.4127 111.187 100.103 110.462C100.794 109.739 101.657 109.201 102.611 108.899C102.611 108.899 112.405 105.327 115.978 106.828C119.551 108.33 125.384 113.041 126.143 116.242C126.902 119.443 125.384 120.944 122.942 123.205C120.5 125.466 113.907 132.61 113.907 132.61Z" stroke="rgba(29, 29, 29, 1)" stroke-width="1"      fill="#1EBC5D" >
</path>
<path d="M103.03 109.66C103.03 109.66 104.68 112.853 103.409 115.114C102.139 117.375 99.2856 123.58 98.5185 121.716C97.7515 119.851 98.8897 113.811 100.168 112.119C100.944 111.112 101.918 110.275 103.03 109.66Z" stroke="rgba(29, 29, 29, 1)" stroke-width="1"      fill="#FFBE9D" >
</path>
<path d="M120.02 126.134C117.215 129.03 113.914 132.61 113.914 132.61L103.939 125.466L102.619 123.766C101.258 123.385 99.9308 122.894 98.6499 122.298C102.495 120.483 111.125 116.671 113.163 118.123C115.201 119.575 118.452 123.964 120.02 126.134Z" stroke="rgba(29, 29, 29, 1)" stroke-width="1"      fill="#6E6E6E" >
</path>
<path d="M119.778 97.4308C122.072 97.0513 126.181 98.751 126.181 98.751C127.088 97.4609 127.705 95.9899 127.99 94.4389C128.275 92.888 128.221 91.2936 127.832 89.7655C127.782 89.5674 127.724 89.3612 127.658 89.1468C125.967 83.5028 117.683 94.0396 116.932 95.7477C116.463 97.0696 116.272 98.4742 116.371 99.8732L115.24 110.418C115.24 110.418 112.039 112.299 113.541 112.489C115.042 112.679 121.074 112.489 119.564 110.979C118.054 109.469 117.303 111.169 117.303 111.169C117.303 111.169 117.485 97.8103 119.778 97.4308Z" stroke="rgba(29, 29, 29, 1)" stroke-width="1"      fill="#1D1D1D" >
</path>
<path d="M106.44 127.269L126.31 118.19C126.145 120.146 124.825 121.442 122.943 123.142C120.468 125.403 113.908 132.55 113.908 132.55L106.44 127.269Z" stroke="rgba(29, 29, 29, 1)" stroke-width="1"      fill="#1D1D1D" >
</path>
<path d="M258 81.9302L195.73 81.9302L195.73 135.5L258 135.5L258 81.9302Z" stroke="rgba(29, 29, 29, 1)" stroke-width="1"      fill="#1DE56D" >
</path>
<path d="M253.31 135.5L201.08 135.5L201.08 136.84L253.31 136.84L253.31 135.5Z" stroke="rgba(29, 29, 29, 1)" stroke-width="1"      fill="#1D1D1D" >
</path>
<path d="M140.327 194.86C138.735 194.687 137.63 194.547 137.63 194.547C137.63 194.547 148.733 175.883 148.733 174.951C148.733 174.019 138.76 161.032 138.76 161.032L140.451 158.02L168.3 161.032C168.3 161.032 152.305 179.662 147.223 185.685C144.76 188.616 142.458 191.679 140.327 194.86Z" stroke="rgba(29, 29, 29, 1)" stroke-width="1"      fill="#6E6E6E" >
</path>
<path    stroke="rgba(29, 29, 29, 1)" stroke-width="1"    d="M64.1799 160.29L67.4399 159.44">
</path>
<path    stroke="rgba(29, 29, 29, 1)" stroke-width="1"    d="M70.1699 158.73L90.0599 153.54">
</path>
<path d="M78.357 154.891L90.96 144.09L83.5368 146.112L70.48 156.92L78.357 154.891Z" stroke="rgba(29, 29, 29, 1)" stroke-width="1"      fill="#FFBE9D" >
</path>
<path    stroke="rgba(29, 29, 29, 1)" stroke-width="1"    d="M156.9 178.3C156.9 178.3 159.078 178.084 162.13 177.81">
</path>
<path    stroke="rgba(29, 29, 29, 1)" stroke-width="1"    d="M185.61 180.01C185.61 180.01 185.61 177.314 179.53 176.976C174.572 176.931 169.615 177.146 164.68 177.619">
</path>
<path d="M116.086 183.224C114.049 183.214 112.024 182.897 110.081 182.283C107.804 181.334 104.199 180.007 105.131 182.094C106.063 184.181 109.115 187.984 110.823 188.742C112.531 189.502 121.647 191.968 123.932 192.546C125.64 192.966 129.806 192.966 131.786 192.941C131.902 192.941 132.016 192.913 132.117 192.857C132.219 192.8 132.305 192.72 132.367 192.622C132.429 192.523 132.464 192.411 132.471 192.296C132.478 192.18 132.455 192.064 132.405 191.96C131.579 190.079 129.773 185.88 129.624 183.43C129.434 180.196 128.667 159.861 126.96 153.971C125.467 148.832 123.387 142.686 122.884 139.84C122.864 139.751 122.861 139.659 122.877 139.569C122.892 139.479 122.925 139.393 122.974 139.316C123.024 139.239 123.088 139.174 123.163 139.122C123.238 139.07 123.323 139.034 123.412 139.015L138.971 135.344C139.722 135.163 143.996 131.656 143.228 131.566C136.439 130.741 118.883 132.762 115.913 133.216C111.92 133.785 117.357 156.768 118.685 164.935C119.832 171.972 118.239 176.707 118.38 178.134C118.392 178.244 118.377 178.355 118.335 178.457C118.293 178.559 118.226 178.649 118.141 178.72L117.315 179.446C117.183 179.566 117.098 179.73 117.076 179.907L116.796 182.605C116.776 182.778 116.692 182.937 116.561 183.051C116.429 183.165 116.26 183.227 116.086 183.224Z" stroke="rgba(29, 29, 29, 1)" stroke-width="1"      fill="#1D1D1D" >
</path>
<path d="M128.666 187.129L123.865 189.438C123.777 189.483 123.682 189.508 123.584 189.512C122.586 189.512 116.605 189.727 115.565 190.073C114.526 190.419 113.857 190.642 114.806 191.78C115.755 192.918 119.929 194.856 124.483 195.771C128.543 196.675 132.702 197.057 136.858 196.909C138.432 196.849 139.997 196.65 141.536 196.315C141.715 196.276 141.872 196.167 141.971 196.012C142.07 195.858 142.103 195.67 142.064 195.491L140.934 189.215C140.908 189.071 140.838 188.939 140.732 188.837C140.627 188.735 140.493 188.668 140.348 188.646L129.095 187.047C128.947 187.026 128.796 187.055 128.666 187.129Z" stroke="rgba(29, 29, 29, 1)" stroke-width="1"      fill="#FFBE9D" >
</path>
<path d="M141.285 194.951C141.46 194.934 141.635 194.982 141.775 195.088C141.916 195.193 142.012 195.348 142.044 195.52C142.083 195.7 142.05 195.887 141.951 196.042C141.852 196.197 141.695 196.306 141.516 196.345C139.977 196.681 138.412 196.879 136.838 196.939C132.681 197.087 128.522 196.705 124.462 195.801C119.924 194.86 115.749 192.93 114.8 191.783C113.975 190.768 114.314 190.504 115.213 190.19L115.988 190.281C117.564 191.329 120.295 192.558 125.064 193.689C130.359 195.034 135.846 195.461 141.285 194.951Z" stroke="rgba(29, 29, 29, 1)" stroke-width="1"      fill="#FFBE9D" >
</path>
<path d="M132.366 147.636L140.658 187.955C140.677 188.052 140.675 188.151 140.652 188.247C140.63 188.344 140.587 188.434 140.527 188.511C140.467 188.59 140.391 188.654 140.304 188.7C140.217 188.747 140.121 188.774 140.023 188.78C137.825 188.944 135.617 188.925 133.423 188.723C131.551 188.457 129.725 187.927 128.003 187.147C127.913 187.106 127.834 187.047 127.77 186.972C127.706 186.899 127.659 186.812 127.631 186.718L126.996 184.663C126.979 184.582 126.979 184.498 126.996 184.416L127.359 178.806C127.366 178.71 127.352 178.614 127.318 178.525C126.493 176.289 117.632 146.06 116.716 142.396C115.768 138.601 114.629 135.565 117.096 133.857C119.562 132.149 151.474 125.739 151.474 125.739L177.643 123.09C177.643 123.09 179.92 137.339 178.781 140.945C177.643 144.55 151.135 147.627 143.916 147.058C138.265 146.613 139.132 147.272 133.299 146.851C132.754 146.811 132.26 147.091 132.366 147.636Z" stroke="rgba(29, 29, 29, 1)" stroke-width="1"      fill="#1EBC5D" >
</path>
<path    stroke="rgba(29, 29, 29, 1)" stroke-width="1"    d="M151.44 125.77C158.65 128.055 170.81 132.23 170.81 132.23">
</path>
<path    stroke="rgba(29, 29, 29, 1)" stroke-width="1"    d="M122 143.38C126.338 146.034 132.11 146.38 132.11 146.38">
</path>
<path    stroke="rgba(29, 29, 29, 1)" stroke-width="1"    d="M121.43 145.47C124.481 147.015 131.68 148.32 131.68 148.32">
</path>
<path d="M147.643 103.7L146.546 113.013L138.881 114.927L126.15 116.247L135.053 119.307L151.48 122.59L147.643 103.7Z" stroke="rgba(29, 29, 29, 1)" stroke-width="1"      fill="#1D1D1D" >
</path>
<path d="M160.325 127.104C153.106 127.484 149.69 126.148 148.774 124.819C147.858 123.491 148.774 109.44 147.636 104.877C146.497 100.314 144.22 84.5559 144.22 84.5559L151.645 71.6431L152.388 71.2637C152.388 71.2637 156.563 70.3152 163.023 76.3874C168.84 81.994 172.86 89.2017 174.574 97.0965C176.281 104.308 177.989 117.987 178.559 120.644C179.128 123.301 178.369 123.68 177.041 124.44C175.712 125.198 167.544 126.725 160.325 127.104Z" stroke="rgba(29, 29, 29, 1)" stroke-width="1"      fill="#1D1D1D" >
</path>
<path d="M144.988 63.48L150.68 71.8356L141.953 81.14C141.953 81.14 135.874 73.3533 134.925 72.7843C133.977 72.2151 131.89 71.2666 131.89 71.2666L144.988 63.48Z" stroke="rgba(29, 29, 29, 1)" stroke-width="1"      fill="#FFBE9D" >
</path>
<path d="M142.1 70.2202L138.633 76.8002L134.91 72.7878L142.1 70.2202Z" stroke="rgba(29, 29, 29, 1)" stroke-width="1"      fill="#1D1D1D" >
</path>
<path d="M123.901 64.2355C124.471 65.5636 127.128 66.7103 127.128 66.7103C127.128 66.7103 130.61 73.9612 131.377 74.72C132.145 75.479 138.143 72.9796 140.8 71.4616C143.457 69.9438 144.035 65.5718 144.035 65.5718L145.363 64.6232C145.363 64.6232 149.348 63.6745 149.728 61.5874C150.108 59.5004 150.297 57.2154 148.02 55.8873C145.743 54.5593 144.035 53.8003 143.069 53.8003C142.104 53.8003 128.819 55.8873 128.819 55.8873L126.179 57.7846L125.609 60.6307C125.609 60.6307 123.332 62.9073 123.901 64.2355Z" stroke="rgba(29, 29, 29, 1)" stroke-width="1"      fill="#FFBE9D" >
</path>
<path    stroke="rgba(29, 29, 29, 1)" stroke-width="1"    d="M132.26 65.3804C131.493 67.472 128.08 67.6704 128.08 67.6704">
</path>
<path d="M145.748 58.1651C149.163 58.9325 148.594 62.7208 147.646 63.48C146.957 63.9866 146.187 64.3718 145.369 64.619L147.184 66.8804C147.184 66.8804 148.008 65.9477 150.871 65.7579C153.733 65.5681 157.139 62.3411 157.329 59.8734C157.518 57.4057 155.242 54.3604 155.242 54.3604C155.345 54.7381 155.305 55.1405 155.13 55.4905C154.955 55.8407 154.657 56.114 154.293 56.2586C153.317 56.5922 152.269 56.6576 151.258 56.4484L139.48 56.2586C139.48 56.2586 140.998 60.0633 141.575 60.4429C142.152 60.8225 142.334 57.3975 145.748 58.1651Z" stroke="rgba(29, 29, 29, 1)" stroke-width="1"      fill="#1D1D1D" >
</path>
<path d="M152.96 56.8332L125.04 57.9802C125.04 57.9802 125.989 49.6626 126.954 46.5764C127.919 43.4902 138.505 39.9751 144.239 40.5033C149.973 41.0313 152.028 47.5253 152.028 47.5253L152.96 56.8332Z" stroke="rgba(29, 29, 29, 1)" stroke-width="1"      fill="#1EBC5D" >
</path>
<path d="M134.38 57.5922C130.693 58.4426 126.948 59.0156 123.176 59.3063C117.475 59.6854 113.68 57.9796 113.68 56.6446C113.68 55.3096 126.212 57.79 126.212 57.79L134.38 57.5922Z" stroke="rgba(29, 29, 29, 1)" stroke-width="1"      fill="#1EBC5D" >
</path>
<path d="M151.435 67.46L140.42 82.4681L144.983 87.6L153.91 70.884L151.435 67.46Z" stroke="rgba(29, 29, 29, 1)" stroke-width="1"      fill="#1EBC5D" >
</path>
<path d="M120.228 113.256C119.749 113.907 119.089 118.419 118.858 119.417C118.627 120.415 120.649 121.067 121.457 121.331C122.266 121.595 126.407 119.805 126.407 119.805C126.407 119.805 130.945 121.809 132.628 121.554C133.796 121.339 134.914 120.911 135.928 120.292C135.928 120.292 166.601 123.698 171.065 123.987C175.528 124.276 173.911 119.665 173.416 117.561C172.665 114.361 172.095 111.54 172.095 111.54L161.915 112.406L135.458 116.134C135.458 116.134 126.77 114.567 124.443 113.19C122.117 111.812 120.707 112.604 120.228 113.256Z" stroke="rgba(29, 29, 29, 1)" stroke-width="1"      fill="#FFBE9D" >
</path>
<path d="M156.87 79.6647C159.542 79.7884 162.644 82.7588 164.203 85.3001C168.484 92.3628 174.77 114.5 174.77 114.5L154.733 112.578C154.733 112.578 152.094 86.4717 152.844 83.6995C153.661 80.6381 155.171 79.5821 156.87 79.6647Z" stroke="rgba(29, 29, 29, 1)" stroke-width="1"      fill="#1EBC5D" >
</path>
<path d="M126.461 115.929C126.857 116.325 127.127 116.83 127.236 117.38C127.345 117.93 127.288 118.499 127.073 119.017C126.858 119.534 126.494 119.976 126.027 120.287C125.56 120.597 125.012 120.762 124.452 120.76C123.703 120.76 122.986 120.463 122.456 119.934C121.927 119.404 121.63 118.687 121.63 117.938C121.628 117.378 121.793 116.83 122.103 116.363C122.414 115.896 122.856 115.532 123.373 115.317C123.891 115.102 124.46 115.045 125.01 115.154C125.56 115.263 126.065 115.533 126.461 115.929Z" stroke="rgba(29, 29, 29, 1)" stroke-width="1"      fill="#1D1D1D" >
</path>
</g>
<defs>
<clipPath id="clip-path-Fd1jIs5kSP">
<path d="M0 297L297 297L297 0L0 0L0 297Z" fill="white"/>
</clipPath>
</defs>
</svg>
