<svg xmlns="http://www.w3.org/2000/svg" xmlns:xlink="http://www.w3.org/1999/xlink" width="297" height="297" viewBox="0 0 297 297" fill="none">
<g  clip-path="url(#clip-path-McR5YD6KWr)">
<path d="M282.72 205.53C282.72 246.625 222.117 279.94 147.36 279.94C72.6034 279.94 12 246.625 12 205.53C12 164.435 72.6034 131.12 147.36 131.12C222.117 131.12 282.72 164.435 282.72 205.53Z"   fill="#B2FED0" >
</path>
<path d="M42.6949 228.89C51.2142 242.146 88.5311 251.024 126.009 248.716L198.998 244.235C236.493 241.931 260.32 229.851 252.211 217.244C244.103 204.638 207.149 195.955 169.652 197.829L95.2248 201.533C57.6828 203.386 34.1725 215.641 42.6949 228.89Z"   fill="#50DD89" >
</path>
<path d="M186.109 215.41L257 215.41L253.012 211.47L183.78 211.47L186.109 215.41Z"   fill="#E0E0E0" >
</path>
<path d="M121.934 128.874L122.516 129.282C123.651 130.089 124.698 130.831 125.425 131.383C125.837 131.657 126.217 131.974 126.56 132.329C126.115 132.112 125.691 131.854 125.294 131.558C124.531 131.049 123.491 130.336 122.385 129.529L121.81 129.122L122.021 129.071C121.41 130.14 120.865 131.078 120.457 131.74C120.254 132.112 120.01 132.461 119.73 132.78C119.861 132.382 120.039 132.001 120.261 131.645C120.617 130.954 121.141 129.994 121.716 128.925L121.803 128.78L121.934 128.874Z" fill-rule="evenodd"  fill="#1D1D1D" >
</path>
<path d="M64.8604 187.288C51.7123 188.208 41.7988 199.612 42.7182 212.76C43.6376 225.908 55.0418 235.821 68.1898 234.902C81.3379 233.983 91.2514 222.578 90.332 209.43C89.4126 196.282 78.0084 186.369 64.8604 187.288Z"   fill="#1D1D1D" >
</path>
<path d="M91.36 210.65L91.36 210.715C91.3876 216.989 88.9386 223.02 84.5456 227.498C80.1521 231.975 74.1697 234.537 67.8984 234.628C61.6271 234.718 55.5739 232.328 51.0538 227.979C46.5337 223.629 43.9128 217.671 43.76 211.4C43.76 211.4 43.76 211.356 43.76 211.341L91.36 210.65Z"   fill="#1D1D1D" >
</path>
<path d="M55.8743 223.096C53.4982 220.787 51.8607 217.825 51.169 214.585C50.4773 211.345 50.7626 207.972 51.9889 204.894C53.2153 201.816 55.3272 199.172 58.0575 197.295C60.7881 195.418 64.0139 194.394 67.3268 194.351C71.7569 194.295 76.0282 195.997 79.2058 199.084C82.3831 202.172 84.2071 206.393 84.278 210.822C84.3309 214.135 83.3999 217.389 81.6023 220.172C79.8048 222.955 77.2218 225.143 74.1805 226.457C71.1388 227.771 67.7761 228.153 64.5171 227.555C61.2585 226.957 58.2507 225.405 55.8743 223.096Z"   fill="#FAFAFA" >
</path>
<path d="M67.3205 194.351C71.75 194.295 76.0214 195.997 79.1983 199.084C82.3755 202.17 84.1992 206.391 84.2701 210.82L50.8514 211.3C50.795 206.871 52.4967 202.6 55.5837 199.423C58.6707 196.246 62.8913 194.422 67.3205 194.351Z"   fill="#E0E0E0" >
</path>
<path d="M58.0922 207.302C58.8375 205.429 60.1216 203.819 61.7822 202.676C63.4427 201.533 65.4049 200.908 67.4207 200.881C70.1209 200.844 72.7252 201.88 74.6617 203.762C76.5984 205.644 77.7087 208.218 77.7489 210.918C77.7791 212.934 77.2105 214.913 76.1154 216.605C75.0202 218.298 73.4477 219.628 71.5968 220.426C69.7457 221.225 67.6995 221.456 65.7167 221.092C63.7342 220.727 61.9041 219.783 60.4585 218.378C59.0127 216.973 58.0162 215.17 57.5951 213.199C57.1739 211.228 57.3469 209.176 58.0922 207.302Z"   fill="#1D1D1D" >
</path>
<path d="M78.8588 176.153C78.8588 176.153 54.4864 168.78 44.4001 195.259L95.4001 211.06L78.8588 176.153Z"   fill="#1EBC5D" >
</path>
<path d="M234.415 223.997C231.855 227.948 228.181 231.053 223.857 232.916C219.533 234.78 214.754 235.319 210.124 234.466C205.493 233.614 201.22 231.407 197.844 228.125C194.467 224.844 192.14 220.635 191.156 216.03C190.172 211.426 190.575 206.633 192.315 202.258C194.055 197.883 197.053 194.122 200.931 191.452C204.808 188.781 209.39 187.319 214.098 187.252C217.224 187.207 220.328 187.778 223.233 188.933C226.138 190.088 228.787 191.804 231.029 193.983C233.271 196.162 235.061 198.761 236.298 201.632C237.535 204.503 238.194 207.589 238.238 210.716C238.305 215.423 236.975 220.045 234.415 223.997Z"   fill="#1D1D1D" >
</path>
<path d="M238.24 210.65L238.24 210.715C238.268 216.989 235.819 223.02 231.426 227.498C227.032 231.975 221.05 234.537 214.779 234.628C208.507 234.718 202.454 232.328 197.934 227.979C193.414 223.629 190.793 217.671 190.64 211.4C190.64 211.4 190.64 211.356 190.64 211.341L238.24 210.65Z"   fill="#1D1D1D" >
</path>
<path d="M221.045 226.459C218.003 227.773 214.639 228.154 211.379 227.554C208.12 226.954 205.112 225.399 202.736 223.088C200.361 220.777 198.725 217.813 198.036 214.572C197.347 211.33 197.635 207.957 198.865 204.879C200.095 201.801 202.21 199.158 204.943 197.284C207.676 195.41 210.905 194.389 214.218 194.351C218.645 194.301 222.911 196.005 226.083 199.092C229.256 202.178 231.077 206.396 231.148 210.822C231.201 214.135 230.269 217.39 228.471 220.174C226.672 222.958 224.088 225.145 221.045 226.459Z"   fill="#FAFAFA" >
</path>
<path d="M214.22 194.351C218.65 194.295 222.921 195.997 226.098 199.084C229.275 202.17 231.099 206.391 231.17 210.82L197.751 211.3C197.695 206.871 199.397 202.6 202.484 199.423C205.571 196.246 209.791 194.422 214.22 194.351Z"   fill="#E0E0E0" >
</path>
<path d="M224.619 210.918C224.649 212.934 224.08 214.913 222.985 216.605C221.89 218.298 220.318 219.628 218.467 220.426C216.616 221.225 214.569 221.456 212.587 221.092C210.604 220.727 208.774 219.783 207.328 218.378C205.883 216.973 204.886 215.17 204.465 213.199C204.044 211.228 204.217 209.176 204.962 207.302C205.707 205.429 206.992 203.819 208.652 202.676C210.313 201.533 212.275 200.908 214.291 200.881C216.991 200.844 219.595 201.88 221.532 203.762C223.468 205.644 224.579 208.218 224.619 210.918Z"   fill="#1D1D1D" >
</path>
<path d="M187.47 219.602C183.103 219.776 177.368 217.142 174.66 213.781L180.57 201.505C180.738 201.571 193.111 199.57 193.111 199.57C193.781 200.446 194.634 201.164 195.61 201.676C196.588 202.187 197.664 202.479 198.766 202.531C204.115 202.786 209.356 203.026 213.89 203.259C215.912 203.352 217.816 204.24 219.186 205.729C220.556 207.219 221.282 209.19 221.205 211.212C221.122 213.139 220.319 214.965 218.953 216.327C217.587 217.69 215.76 218.49 213.832 218.568L187.47 219.602Z"   fill="#11BD56" >
</path>
<path     fill="#1EBC5D"  d="M148.298 159.965L148.298 167.054C148.298 167.054 159.506 180.554 155.846 191.761C152.185 202.967 151.042 204.132 151.042 204.132L107.572 204.132C104.144 199.308 102.233 193.571 102.084 187.656C101.851 177.824 105.941 160.999 108.99 150.25C111.764 140.469 113.518 132.297 113.518 132.297L100.483 127.93C100.483 127.93 76.3492 159.478 75.3663 161.254C74.3851 163.029 71.0005 167.163 71.815 176.23C72.6312 185.298 94.2901 213.287 100.002 216.445C105.715 219.604 110.875 219.8 115.97 220.594C120.424 221.277 153.328 220.819 161.936 220.689C164.93 220.672 167.863 219.858 170.436 218.33C173.014 216.773 174.95 214.189 177.081 209.946L181.615 201.076L245.34 190.967C245.34 190.967 246.475 167.774 224.671 162.935L224.671 159.965L148.298 159.965">
</path>
<path fill-rule="evenodd"  fill="rgba(0, 0, 0, 1)"  d="M224.671 162.935L224.671 159.965L148.298 159.965L148.298 167.054C148.298 167.054 159.506 180.554 155.846 191.761C152.185 202.967 151.042 204.132 151.042 204.132L107.572 204.132C104.144 199.308 102.233 193.571 102.084 187.656C101.851 177.824 105.941 160.999 108.99 150.25C111.764 140.469 113.518 132.297 113.518 132.297L100.483 127.93C100.483 127.93 76.3492 159.478 75.3663 161.254C75.252 161.46 75.1052 161.699 74.9361 161.974C73.6537 164.059 71.0954 168.219 71.815 176.23C72.6312 185.298 94.2901 213.287 100.002 216.445C105.715 219.604 110.875 219.8 115.97 220.594C120.424 221.277 153.328 220.819 161.936 220.689C164.93 220.672 167.863 219.858 170.436 218.33C173.014 216.773 174.95 214.189 177.081 209.946L181.615 201.076L245.34 190.967C245.34 190.967 246.475 167.774 224.671 162.935ZM244.348 190.112L180.956 200.168L176.19 209.491Q174.596 212.667 173.138 214.529Q171.655 216.426 169.919 217.474Q168.11 218.548 166.076 219.112Q164.042 219.677 161.93 219.689Q148.173 219.897 137.39 219.946Q118.899 220.031 116.121 219.605Q115.23 219.466 113.444 219.225Q111.33 218.939 110.267 218.765Q108.507 218.477 107.076 218.124Q103.515 217.245 100.486 215.57Q99.5485 215.052 97.8736 213.458Q96.2061 211.871 94.0509 209.441Q91.915 207.033 89.5694 204.1Q87.1852 201.118 84.8799 197.964Q79.8247 191.047 76.6306 185.403Q74.9161 182.373 73.9496 180.048Q72.9452 177.632 72.811 176.141Q72.3608 171.129 73.5804 167.175Q74.0213 165.745 74.6985 164.406Q75.0887 163.635 75.7879 162.498L75.7879 162.498Q76.1161 161.964 76.2416 161.737Q76.8207 160.691 89.0896 144.531Q95.0235 136.715 100.843 129.105L112.349 132.96Q111.946 134.777 111.322 137.372Q109.756 143.883 108.028 149.977Q105.137 160.17 103.326 169.098Q100.925 180.942 101.084 187.68Q101.2 192.267 102.649 196.619Q104.099 200.972 106.756 204.711L107.055 205.132L151.462 205.132L151.756 204.832Q152.17 204.411 152.987 202.551Q154.493 199.122 156.796 192.071Q158.134 187.975 157.193 182.987Q156.454 179.065 154.342 174.764Q152.845 171.713 150.816 168.771Q150.18 167.85 149.567 167.048Q149.419 166.854 149.298 166.702L149.298 160.965L223.671 160.965L223.671 163.737L224.454 163.911Q231.674 165.513 236.405 170.076Q240.19 173.728 242.247 179.122Q243.727 183.002 244.182 187.371Q244.324 188.735 244.346 189.979Q244.347 190.048 244.348 190.112Z">
</path>
<path d="M239.496 189.38L249.116 204.422C249.392 204.842 249.525 205.34 249.496 205.842C249.467 206.344 249.278 206.823 248.955 207.209C248.633 207.595 248.195 207.866 247.707 207.984C247.218 208.102 246.705 208.06 246.242 207.864C245.045 207.335 243.953 206.596 243.018 205.681C238.615 201.489 230.77 190.464 230.77 190.464L239.496 189.38Z"   fill="#1EBC5D" >
</path>
<path d="M226.7 172.987C229.427 174.501 231.92 176.404 234.101 178.633C234.873 179.427 235.419 180.089 235.79 180.54L236.204 181.057C236.248 181.117 236.297 181.173 236.35 181.224C235.703 180.271 234.972 179.377 234.167 178.553C232.006 176.279 229.516 174.341 226.779 172.804C222.712 170.542 218.331 168.897 213.781 167.921C211.226 167.332 208.519 166.859 205.695 166.466C202.777 166.052 199.835 165.833 196.888 165.811C193.938 165.79 190.994 166.098 188.111 166.728C185.423 167.34 182.832 168.319 180.411 169.639C178.218 170.829 176.228 172.359 174.515 174.173C173.03 175.762 171.827 177.593 170.957 179.587C169.665 182.47 169.18 185.648 169.552 188.785C169.668 189.629 169.855 190.462 170.112 191.274L170.338 191.9C170.39 191.957 170.447 192.01 170.506 192.06C170.495 191.986 170.477 191.913 170.454 191.842C170.406 191.691 170.34 191.48 170.258 191.209C170.026 190.396 169.858 189.566 169.755 188.727C169.421 185.619 169.923 182.479 171.212 179.63C172.086 177.669 173.285 175.869 174.756 174.304C176.449 172.519 178.415 171.014 180.578 169.843C182.977 168.548 185.544 167.592 188.206 167.004C191.075 166.384 194.004 166.082 196.94 166.102C199.861 166.125 202.779 166.339 205.673 166.742C208.489 167.128 211.197 167.594 213.745 168.198C218.272 169.156 222.637 170.769 226.7 172.987Z"   fill="#1D1D1D" >
</path>
<path d="M183.834 172.169C185.181 171.65 186.578 171.27 188.003 171.034C188.966 170.872 189.938 170.76 190.913 170.699C191.273 170.696 191.633 170.67 191.99 170.619C191.896 170.607 191.8 170.607 191.706 170.619C191.524 170.619 191.255 170.619 190.906 170.619C189.931 170.634 188.959 170.715 187.996 170.859C186.55 171.07 185.13 171.433 183.761 171.944C182.082 172.584 180.517 173.49 179.126 174.628C178.412 175.226 177.766 175.899 177.198 176.637C176.648 177.319 176.161 178.05 175.743 178.82C175.026 180.104 174.555 181.51 174.353 182.967C174.212 183.952 174.276 184.955 174.542 185.914C174.61 186.165 174.702 186.409 174.819 186.642C174.849 186.717 174.885 186.79 174.928 186.86C174.964 186.86 174.804 186.489 174.637 185.827C174.422 184.871 174.395 183.882 174.557 182.916C174.779 181.496 175.258 180.128 175.968 178.878C176.373 178.13 176.846 177.422 177.38 176.76C177.948 176.05 178.59 175.401 179.293 174.825C180.658 173.707 182.19 172.811 183.834 172.169Z"   fill="#F5F5F5" >
</path>
<g opacity="0.4">
<g opacity="0.4">
<path d="M189.87 166.53C185.757 167.287 181.843 168.88 178.37 171.21C174.877 173.531 172.185 176.874 170.662 180.782C169.141 184.705 169.367 189.902 170.975 193.156L165.575 193.6C163.755 187.544 165.735 180.105 170.102 175.359C172.602 172.594 175.651 170.381 179.055 168.861C182.459 167.34 186.142 166.546 189.87 166.53Z"   fill="#1D1D1D" >
</path>
</g>
</g>
<path d="M148.33 162.665C148.33 162.753 165.499 162.82 186.67 162.82C207.841 162.82 225.01 162.753 225.01 162.665C225.01 162.576 207.841 162.51 186.67 162.51C165.499 162.51 148.33 162.584 148.33 162.665Z"   fill="#1D1D1D" >
</path>
<path d="M148.304 159.96C147.529 158.974 147.049 157.789 146.921 156.541C146.804 154.621 147.649 152.22 149.737 152.22L176.113 152.22C177.13 152.22 178.137 152.42 179.076 152.81C180.015 153.199 180.868 153.769 181.587 154.488C182.305 155.206 182.875 156.06 183.263 156.999C183.652 157.938 183.851 158.944 183.85 159.96L148.304 159.96Z"   fill="#1EBC5D" >
</path>
<path d="M96.7437 106.4L95.55 125.73L100.128 127.52L97.2167 132.222L113.52 132.28L118.113 122.717C118.726 121.404 118.828 119.911 118.398 118.527C117.969 117.144 117.04 115.97 115.791 115.235L102.079 107.055C101.362 106.626 100.542 106.4 99.7059 106.4L96.7437 106.4Z"   fill="#1EBC5D" >
</path>
<path d="M96.7001 107.1C96.7001 107.1 92.01 108.177 91.421 115.41C90.832 122.643 95.5512 124.87 95.5512 124.87L96.7001 107.1Z"   fill="#FFFFFF" >
</path>
<path d="M96.6566 107.488L96.5693 108.528C96.4892 109.474 96.3946 110.755 96.2709 112.327C96.0235 115.529 95.696 119.932 95.3758 124.888L95.6451 124.728C95.1409 124.452 94.6779 124.107 94.2697 123.702C93.3398 122.802 92.6322 121.699 92.2029 120.478C91.7967 119.339 91.578 118.143 91.5552 116.934C91.4794 114.873 91.8751 112.822 92.7123 110.937C93.2985 109.677 94.2105 108.597 95.354 107.808C95.7821 107.525 96.2352 107.281 96.7075 107.08C96.5729 107.089 96.4403 107.118 96.3146 107.167C95.9518 107.297 95.6032 107.463 95.2739 107.662C94.0637 108.424 93.0927 109.511 92.4722 110.799C91.5767 112.712 91.1429 114.808 91.206 116.919C91.219 118.16 91.4379 119.389 91.8536 120.558C92.3098 121.835 93.0573 122.989 94.0368 123.927C94.4691 124.357 94.9589 124.724 95.4922 125.019L95.747 125.15L95.747 124.859C96.0672 119.816 96.3146 115.325 96.4747 112.131C96.5475 110.581 96.6129 109.314 96.6566 108.376L96.7003 107.378C96.71 107.287 96.7124 107.194 96.7075 107.102C96.6753 107.228 96.6583 107.357 96.6566 107.488Z" fill-rule="evenodd"  fill="#1D1D1D" >
</path>
<path d="M113.596 119.198C113.596 119.198 126.093 125.123 127.622 126.062C128.677 126.739 129.587 127.919 128.757 130.001C127.338 133.539 121.479 130.212 121.479 130.212L109.833 124.388C109.833 124.388 105.364 122.27 107.017 119.634C108.894 116.708 113.596 119.198 113.596 119.198Z"   fill="#1D1D1D" >
</path>
<path d="M111.47 104.92C111.47 108.527 113.129 111.45 115.175 111.45C117.221 111.45 118.88 108.527 118.88 104.92C118.88 101.314 117.221 98.3901 115.175 98.3901C113.129 98.3901 111.47 101.314 111.47 104.92Z"   fill="#1D1D1D" >
</path>
<path d="M114.57 109.401L112.533 116.45C112.162 116.264 111.865 115.956 111.693 115.577C111.521 115.198 111.484 114.772 111.588 114.37C112.097 111.954 112.388 110.238 112.948 108.121C113.013 107.91 114.57 109.401 114.57 109.401Z"   fill="#1D1D1D" >
</path>
<g opacity="0.3">
<g opacity="0.3">
</g>
</g>
<path d="M160.996 204.31L243.099 192.377C244.284 192.205 245.356 191.586 246.097 190.646C246.838 189.707 247.19 188.519 247.08 187.328L246.774 184.01L167.445 193.148C166.384 193.274 165.36 193.614 164.436 194.149C163.511 194.684 162.706 195.402 162.069 196.259C161.432 197.116 160.976 198.094 160.73 199.133C160.485 200.172 160.454 201.25 160.639 202.302L160.996 204.31Z"   fill="#1EBC5D" >
</path>
<g opacity="0.3">
<g opacity="0.3">
<path d="M243.099 192.377C244.284 192.205 245.356 191.586 246.097 190.646C246.838 189.707 247.19 188.519 247.08 187.328L246.774 184.01L167.445 193.148C166.384 193.274 165.36 193.614 164.436 194.149C163.511 194.684 162.706 195.402 162.069 196.259C161.432 197.116 160.976 198.094 160.73 199.133C160.485 200.172 160.454 201.25 160.639 202.302L160.996 204.31L243.099 192.377Z"   fill="#1D1D1D" >
</path>
</g>
</g>
<g opacity="0.3">
<g opacity="0.3">
<path d="M92.8201 209.52C92.8201 209.52 75.3512 190.317 71.7481 175.21C69.9377 175.201 68.1293 175.335 66.3401 175.611C66.3401 175.611 76.6758 203.684 92.8201 209.52Z"   fill="#1D1D1D" >
</path>
</g>
</g>
<path d="M93.4017 209.977L92.4991 208.885L89.158 204.882C85.4557 200.521 82.0717 195.9 79.033 191.054C77.3422 188.397 75.7944 185.651 74.3963 182.829C73.2753 180.526 72.4862 178.075 72.0524 175.551C71.78 173.84 71.7042 172.104 71.8268 170.376C71.8633 169.765 71.9432 169.292 71.9651 168.971C71.9923 168.796 72.0044 168.618 72.0015 168.44C71.9538 168.599 71.9222 168.762 71.9068 168.928C71.8633 169.248 71.7685 169.714 71.7031 170.332C71.5432 172.069 71.5896 173.818 71.8414 175.543C72.2454 178.106 73.0228 180.595 74.1487 182.931C75.5306 185.77 77.0738 188.529 78.771 191.192C81.815 196.06 85.2343 200.684 88.9978 205.021C90.4173 206.702 91.5892 208.041 92.4118 208.958L93.3506 210.013C93.4565 210.142 93.5733 210.262 93.7001 210.37C93.6126 210.23 93.5128 210.099 93.4017 209.977Z"   fill="#1D1D1D" >
</path>
<path d="M102.2 209.38C104.132 207.771 105.931 206.008 107.58 204.11C106.582 204.876 105.647 205.721 104.784 206.636C103.849 207.478 102.985 208.396 102.2 209.38Z"   fill="#1D1D1D" >
</path>
<path d="M154.03 208.789C153.752 207.891 153.318 207.049 152.749 206.3C152.259 205.5 151.639 204.786 150.915 204.19C150.842 204.248 151.643 205.209 152.494 206.468C153.346 207.727 153.95 208.825 154.03 208.789Z"   fill="#1D1D1D" >
</path>
<path d="M185.206 216.853C184.553 215.615 184.154 214.259 184.034 212.865C183.856 211.165 184.153 209.45 184.89 207.909C185.628 206.368 186.778 205.06 188.212 204.132C189.37 203.345 190.675 202.801 192.049 202.531C193.321 202.299 194.622 202.282 195.9 202.48C195.9 202.48 195.813 202.444 195.638 202.4C195.399 202.334 195.156 202.285 194.91 202.255C193.956 202.123 192.988 202.145 192.042 202.32C190.632 202.569 189.288 203.107 188.096 203.899C186.602 204.844 185.405 206.192 184.644 207.787C183.883 209.382 183.588 211.16 183.794 212.916C183.928 214.342 184.356 215.724 185.053 216.976C185.513 217.82 186.103 218.586 186.8 219.247C187.04 219.487 187.266 219.633 187.397 219.749C187.455 219.8 187.518 219.844 187.586 219.88C186.632 219.008 185.828 217.985 185.206 216.853Z"   fill="#1D1D1D" >
</path>
<path d="M216.555 213.8C216.751 212.882 216.846 211.945 216.838 211.006C216.934 210.07 216.934 209.126 216.838 208.19C216.642 209.11 216.547 210.05 216.555 210.991C216.455 211.925 216.455 212.866 216.555 213.8Z"   fill="#1D1D1D" >
</path>
<path d="M214.459 213.81C214.724 212.898 214.893 211.961 214.965 211.013C215.131 210.079 215.201 209.129 215.175 208.18C214.904 209.091 214.735 210.029 214.668 210.977C214.494 211.911 214.424 212.861 214.459 213.81Z"   fill="#1D1D1D" >
</path>
<path d="M181.74 159.965C181.74 160.046 191.383 160.12 203.282 160.12C215.18 160.12 224.83 160.046 224.83 159.965C224.83 159.884 215.18 159.81 203.282 159.81C191.383 159.81 181.74 159.876 181.74 159.965Z"   fill="#1D1D1D" >
</path>
<path d="M232.981 195.816C233.755 196.816 234.451 197.875 235.062 198.982C237.12 202.632 238.209 206.747 238.227 210.937C238.245 215.127 237.191 219.252 235.164 222.919C234.558 224.031 233.87 225.097 233.105 226.106C232.85 226.478 232.618 226.732 232.479 226.929C232.388 227.016 232.307 227.114 232.239 227.22C232.334 227.145 232.419 227.059 232.494 226.965C232.647 226.79 232.894 226.536 233.171 226.179C233.986 225.193 234.716 224.138 235.353 223.028C237.457 219.349 238.557 215.18 238.54 210.941C238.523 206.703 237.392 202.543 235.259 198.88C234.623 197.774 233.892 196.724 233.076 195.743C232.799 195.387 232.545 195.139 232.392 194.965C232.314 194.871 232.226 194.786 232.13 194.71C232.191 194.813 232.262 194.911 232.341 195.001C232.487 195.19 232.719 195.452 232.981 195.816Z"   fill="#1EBC5D" >
</path>
<path d="M150.91 217.757C150.91 217.757 150.241 233.326 150.226 234.076L146.923 236.58L139 234.607L139.728 217.4L150.91 217.757Z"   fill="#FFBE9D" >
</path>
<path d="M129.073 80.7971L120.785 85.2297L106.922 75.1201L102.89 82.0782C102.89 82.0782 111.332 90.2226 114.33 92.9957C117.328 95.7685 119.293 97.2461 121.483 96.8167C123.674 96.3872 135.87 89.6111 135.87 89.6111C135.87 89.6111 132.319 80.9427 129.073 80.7971Z"   fill="#FFBE9D" >
</path>
<path d="M120.766 88.53L120.766 88.4499C120.788 88.3698 120.758 88.3188 120.736 88.3188C120.736 88.3188 120.685 88.3698 120.655 88.4572L120.655 88.53L120.839 88.53L120.839 88.4644L120.839 88.246C120.89 87.8304 120.917 87.4123 120.92 86.9937C120.99 86.3949 120.937 85.7884 120.766 85.21C120.56 85.7785 120.482 86.3849 120.538 86.9865C120.538 87.4743 120.538 87.9184 120.574 88.246L120.574 88.4644L120.574 88.53C120.957 88.53 120.685 88.53 120.766 88.53Z"   fill="#EB996E" >
</path>
<path d="M105.196 83.9679C104.919 84.0553 102.336 81.2688 102.336 81.2688C102.336 81.2688 97.4973 81.1815 96.3404 80.5413C95.1836 79.9011 93.4299 77.5149 93.4299 77.5149L95.7655 70.3999C97.9258 70.5413 100.076 70.8085 102.205 71.2001C103.748 71.6293 107.437 75.4925 107.437 75.4925L109.023 77.9587C109.023 77.9587 109.518 82.6365 105.196 83.9679Z"   fill="#FFBE9D" >
</path>
<path d="M91.7864 74.7706C91.7817 74.4154 91.8759 74.066 92.0586 73.7614C92.2411 73.4568 92.5048 73.209 92.8201 73.0456C92.8201 73.0456 89.1805 72.0049 88.8894 71.8884C87.8557 71.4663 85.8831 70.5274 86.7056 69.756C87.004 69.4721 87.1205 69.1591 89.2025 69.4139C91.0951 69.6395 94.0722 70.3382 94.0722 70.3382C94.0722 70.3382 96.6198 70.4619 97.9592 70.6001C99.6192 70.7522 101.263 71.0468 102.873 71.4809C104.591 72.2741 106.09 74.5304 106.09 74.5304L102.312 81.2698L97.0129 80.9423C96.4196 80.8998 95.8291 80.8246 95.2441 80.7167C94.0794 80.5202 92.8784 80.4183 92.9148 79.261C92.9115 79.0694 92.9495 78.8792 93.026 78.7033C93.1026 78.5275 93.2162 78.3703 93.3587 78.2422C93.3587 78.2422 92.4999 77.8856 92.5072 77.2378C92.5091 77.0493 92.5555 76.8641 92.6429 76.6972C92.7302 76.5301 92.8557 76.3862 93.0094 76.2771C93.0094 76.2771 91.8228 75.7312 91.7864 74.7706Z"   fill="#FFBE9D" >
</path>
<path d="M94.8715 80.4556C94.8715 80.4411 95.2351 80.3099 95.8167 80.0768C96.158 79.9476 96.4886 79.7917 96.8054 79.6104C96.9809 79.5115 97.1132 79.3503 97.1762 79.1587C97.2 79.0574 97.1957 78.9516 97.1636 78.8527C97.1316 78.7537 97.0731 78.6655 96.9944 78.5976C96.8362 78.4467 96.6359 78.3475 96.4201 78.3135C96.2072 78.2958 95.9932 78.2958 95.7803 78.3135L94.668 78.3135C94.3265 78.3066 93.9862 78.2725 93.6501 78.2115C93.9898 78.1651 94.3325 78.1457 94.6752 78.1532L95.7876 78.1532C96.0078 78.1358 96.229 78.1358 96.4492 78.1532C96.7007 78.1851 96.9353 78.2975 97.118 78.4738C97.2178 78.5633 97.291 78.6787 97.3295 78.8073C97.368 78.9359 97.3703 79.0726 97.3361 79.2024C97.262 79.4302 97.1032 79.6207 96.8926 79.7343C96.7207 79.8408 96.5379 79.9287 96.3474 79.9966L95.8675 80.1788C95.5622 80.2881 95.3223 80.3609 95.1405 80.4046C94.9588 80.4483 94.8715 80.4702 94.8715 80.4556Z"   fill="#EB996E" >
</path>
<path d="M97.6186 73.2398C97.2409 73.0787 96.9071 72.8295 96.6454 72.5129C96.3398 72.2405 96.1075 71.8955 95.97 71.5098C96.0063 71.5098 96.3041 71.9314 96.7616 72.4038C97.2191 72.8763 97.6476 73.2034 97.6186 73.2398Z"   fill="#EB996E" >
</path>
<path d="M100.682 71.5698C100.682 71.5698 100.471 71.6281 100.107 71.7664C99.5964 71.9734 99.1205 72.2584 98.6965 72.6111C98.0727 73.1394 97.5396 73.7667 97.1185 74.4678C96.8665 74.8779 96.6359 75.3008 96.4277 75.7348C96.1881 76.1805 96.0844 76.6869 96.1296 77.1911C96.1667 77.4372 96.2784 77.6659 96.4495 77.8464C96.6268 78.0141 96.845 78.1321 97.0822 78.1886C97.5397 78.3038 98.0239 78.2387 98.4348 78.0066C98.8046 77.7866 99.1241 77.4915 99.3729 77.1401C99.595 76.8312 99.792 76.5049 99.9619 76.1644C100.201 75.6628 100.47 75.1765 100.769 74.7081C100.878 74.5479 100.98 74.4314 101.045 74.3513C101.111 74.2712 101.14 74.2276 101.14 74.2348C101.14 74.2348 101.009 74.4023 100.798 74.7372C100.532 75.2102 100.289 75.6963 100.071 76.1935C99.9065 76.5447 99.7119 76.8809 99.4892 77.1984C99.2346 77.5713 98.9021 77.8843 98.5147 78.1158C98.0738 78.3671 97.5544 78.4425 97.0603 78.327C96.7879 78.2657 96.5368 78.1324 96.3332 77.9411C96.1368 77.743 96.0071 77.4884 95.9623 77.2129C95.9111 76.6717 96.0198 76.1273 96.275 75.6474C96.4936 75.2071 96.7364 74.7793 97.0022 74.3659C97.4379 73.6582 97.9884 73.0282 98.6311 72.5018C99.0659 72.1489 99.5578 71.8731 100.085 71.6863C100.23 71.6341 100.378 71.5951 100.529 71.5698C100.631 71.5698 100.682 71.5698 100.682 71.5698Z"   fill="#EB996E" >
</path>
<path d="M98.8246 78.3868C99.0264 78.3917 99.227 78.3545 99.4137 78.2776C99.5882 78.2194 99.6682 78.0155 99.7409 77.819C99.8136 77.6224 99.8719 77.2948 99.9301 77.04L99.9955 77.1346C98.4536 76.8944 97.0864 76.6687 96.1118 76.5012L94.9555 76.2974C94.8103 76.28 94.6668 76.2508 94.5264 76.21C94.6678 76.2089 94.809 76.2211 94.9482 76.2464L96.1118 76.4066L100.01 76.9817L100.09 76.9817L100.09 77.0691C100.032 77.3166 99.9809 77.5933 99.8937 77.8627C99.8588 77.9751 99.8099 78.0827 99.7482 78.183C99.7182 78.2338 99.6816 78.2803 99.6391 78.3213C99.5917 78.3638 99.5377 78.3982 99.4791 78.4232C99.273 78.504 99.0531 78.5436 98.8318 78.5397C98.4028 78.5397 98.01 78.4815 97.6319 78.4524C96.9045 78.3868 96.1773 78.3286 95.6246 78.2922C95.0718 78.2558 94.5918 78.2412 94.2646 78.2267C94.0999 78.2389 93.9347 78.2389 93.77 78.2267C93.9334 78.1993 94.0989 78.1871 94.2646 78.1903C94.5918 78.1903 95.0573 78.1903 95.6318 78.1903C96.2064 78.1903 96.89 78.2558 97.6464 78.314C98.0246 78.314 98.4246 78.3941 98.8246 78.3868Z" fill-rule="evenodd"  fill="#EB996E" >
</path>
<path d="M99.5775 77.1999C99.0454 77.161 98.5171 77.0807 97.9975 76.9597L95.3545 76.4356L93.578 76.0717L93.0974 75.9625L92.9299 75.9116C92.9879 75.9035 93.0467 75.9035 93.1047 75.9116L93.5925 75.9916L95.3764 76.3046L98.0266 76.7996C98.5366 76.9165 99.0553 76.9919 99.5775 77.0252C99.8444 77.0293 100.108 76.9641 100.342 76.836C100.46 76.7724 100.564 76.6842 100.645 76.5776C100.727 76.4709 100.785 76.3481 100.815 76.2173C100.855 75.9483 100.795 75.6741 100.648 75.4457C100.51 75.2189 100.314 75.0329 100.08 74.9071C99.6055 74.6834 99.0997 74.5336 98.58 74.4631C97.5897 74.2592 96.7014 74.0264 95.9661 73.8153C95.2307 73.6042 94.641 73.3931 94.2405 73.2475L93.7818 73.0655L93.6216 73C93.6789 73.0079 93.7352 73.0225 93.7891 73.0437L94.2623 73.1965C94.6701 73.3203 95.2598 73.5095 95.9952 73.7061C96.7306 73.9026 97.6189 74.1282 98.6091 74.3248C99.1439 74.3947 99.6645 74.5469 100.153 74.7761C100.415 74.9131 100.634 75.1196 100.786 75.3729C100.955 75.6362 101.022 75.9518 100.975 76.261C100.94 76.4145 100.872 76.5588 100.777 76.6843C100.682 76.8097 100.561 76.9136 100.422 76.9889C100.163 77.1299 99.8724 77.2026 99.5775 77.1999Z"   fill="#EB996E" >
</path>
<path d="M104.33 77.2998C104.33 77.2998 104.25 77.4675 104.031 77.6643C103.739 77.9089 103.395 78.0857 103.026 78.1819C102.658 78.2818 102.272 78.2968 101.897 78.2256C101.613 78.1673 101.453 78.0871 101.46 78.0653C101.966 78.1458 102.481 78.1335 102.982 78.0288C103.475 77.8758 103.932 77.6282 104.33 77.2998Z"   fill="#EB996E" >
</path>
<path d="M126.161 125.569L129.145 127.236L132.383 125.46C132.836 125.209 133.228 124.862 133.533 124.443C133.837 124.025 134.046 123.544 134.144 123.036L135.17 117.62C135.17 117.62 121.344 120.175 120.383 120.437C119.423 120.699 115.471 122.563 115.289 123.756C115.184 125.327 115.184 126.903 115.289 128.473C115.289 128.473 116.017 129.048 116.439 127.898C116.731 126.78 116.856 125.625 116.81 124.47L118.993 123.625L117.8 125.751L117.603 130.73C117.603 130.73 119.132 130.592 119.43 129.398C119.618 128.571 119.715 127.727 119.721 126.879L121.322 125.525L120.121 127.149L119.721 130.73C119.721 130.73 120.885 131.108 121.256 130.315C121.522 129.281 121.654 128.216 121.649 127.149L126.161 125.569Z"   fill="#FFBE9D" >
</path>
<path d="M162.07 44.7015C162.583 46.0454 162.822 47.4784 162.774 48.9166L162.315 73.042C162.279 74.9399 161.526 76.7538 160.207 78.119C158.888 79.4843 157.101 80.2989 155.206 80.4C154.18 80.4528 153.154 80.2946 152.192 79.9355C151.23 79.576 150.352 79.0232 149.612 78.3114C148.872 77.5991 148.286 76.7427 147.89 75.795C147.494 74.8478 147.296 73.8289 147.31 72.8019C147.31 70.5022 147.382 68.6247 147.382 68.6247C147.382 68.6247 141.517 68.0204 141.139 62.2055C140.927 58.8434 141.138 51.1873 141.306 45.3212C141.37 43.4019 142.154 41.5765 143.502 40.2092C144.851 38.8418 146.665 38.0323 148.583 37.9419L152.098 37.7598C153.537 37.7743 154.958 38.0767 156.278 38.6486C157.598 39.2205 158.79 40.0505 159.785 41.0899C160.78 42.1297 161.557 43.3576 162.07 44.7015Z"   fill="#FFBE9D" >
</path>
<path d="M147.379 68.5673C150.067 68.4182 152.655 67.5032 154.84 65.9302C154.84 65.9302 153.188 70.3011 147.35 70.0388L147.379 68.5673Z"   fill="#EB996E" >
</path>
<path d="M142.687 50.7846C142.789 50.8935 143.415 50.3927 144.296 50.3491C145.177 50.3055 145.868 50.7193 145.956 50.6032C146.043 50.487 145.89 50.3636 145.592 50.1676C145.189 49.9239 144.722 49.8075 144.252 49.8337C143.787 49.856 143.34 50.0265 142.979 50.3201C142.717 50.5378 142.629 50.7411 142.687 50.7846Z"   fill="#1D1D1D" >
</path>
<path d="M152.723 53.2743C152.799 53.2009 152.86 53.1131 152.903 53.0161C152.945 52.9191 152.968 52.8147 152.97 52.7089C152.962 52.492 152.869 52.2867 152.711 52.1374C152.553 51.988 152.342 51.9065 152.124 51.9105C152.018 51.9075 151.911 51.9258 151.812 51.9642C151.713 52.0026 151.622 52.0603 151.545 52.1339C151.469 52.2076 151.407 52.2957 151.365 52.3932C151.323 52.4907 151.301 52.5955 151.3 52.7016C151.308 52.9185 151.401 53.1238 151.559 53.2731C151.717 53.4225 151.928 53.504 152.146 53.5C152.252 53.5019 152.358 53.483 152.457 53.4443C152.556 53.4056 152.646 53.3478 152.723 53.2743Z"   fill="#1D1D1D" >
</path>
<path d="M144.308 53.4461C144.407 53.4077 144.498 53.3501 144.575 53.2764C144.652 53.2027 144.713 53.1146 144.755 53.0172C144.797 52.9197 144.819 52.8149 144.82 52.7088C144.813 52.4919 144.72 52.2867 144.561 52.1373C144.403 51.988 144.192 51.9065 143.974 51.9105C143.868 51.9076 143.762 51.9258 143.662 51.9642C143.563 52.0026 143.472 52.0603 143.395 52.1339C143.319 52.2076 143.257 52.2957 143.215 52.3931C143.173 52.4906 143.151 52.5954 143.15 52.7015C143.158 52.9184 143.251 53.1236 143.409 53.273C143.567 53.4223 143.778 53.5038 143.996 53.4999C144.103 53.5027 144.209 53.4845 144.308 53.4461Z"   fill="#1D1D1D" >
</path>
<path d="M151.325 50.4664C151.434 50.5684 152.053 50.0655 152.935 50.0218C153.817 49.978 154.509 50.3935 154.604 50.2769C154.698 50.1602 154.531 50.0363 154.232 49.8468C153.832 49.5951 153.363 49.4753 152.891 49.5042C152.425 49.5266 151.978 49.6978 151.616 49.9926C151.354 50.2185 151.274 50.4153 151.325 50.4664Z"   fill="#1D1D1D" >
</path>
<path d="M146.672 56.5114L147.269 54.7364C147.819 53.2309 148.247 51.6838 148.55 50.1099C147.88 51.5668 147.327 53.075 146.898 54.62C146.701 55.2456 146.519 55.8348 146.337 56.4022C146.208 56.6854 146.185 57.0054 146.272 57.3043C146.308 57.3841 146.363 57.4545 146.431 57.5099C146.499 57.5654 146.579 57.6045 146.665 57.6244C146.793 57.6415 146.922 57.6415 147.05 57.6244C147.536 57.6694 148.025 57.6548 148.506 57.5807C148.031 57.458 147.542 57.3944 147.05 57.3915C146.825 57.3915 146.599 57.348 146.555 57.1952C146.527 56.9608 146.567 56.7231 146.672 56.5114Z"   fill="#1D1D1D" >
</path>
<path d="M151.171 58.07C151.018 58.07 151.069 59.0465 150.275 59.7752C149.481 60.5039 148.44 60.4529 148.44 60.5914C148.44 60.7298 148.68 60.7662 149.117 60.7589C149.687 60.7355 150.23 60.5139 150.654 60.1322C151.059 59.7513 151.304 59.2301 151.339 58.6748C151.353 58.2959 151.237 58.0627 151.171 58.07Z"   fill="#1D1D1D" >
</path>
<path d="M151.216 47.2227C151.318 47.4557 152.199 47.2955 153.262 47.3684C154.325 47.4412 155.177 47.6815 155.308 47.4557C155.367 47.3538 155.206 47.1281 154.85 46.9096C154.38 46.641 153.854 46.4864 153.313 46.4582C152.773 46.4211 152.231 46.5135 151.733 46.7276C151.355 46.9024 151.173 47.1062 151.216 47.2227Z"   fill="#1D1D1D" >
</path>
<path d="M142.961 47.5647C143.128 47.7618 143.733 47.5136 144.476 47.4698C145.22 47.426 145.854 47.5355 145.985 47.3092C146.043 47.2071 145.934 47.01 145.65 46.8275C145.27 46.6151 144.835 46.521 144.401 46.5575C143.968 46.5939 143.555 46.7591 143.216 47.0319C142.961 47.2508 142.902 47.4698 142.961 47.5647Z"   fill="#1D1D1D" >
</path>
<path d="M161.04 53.3567C161.135 53.3058 164.979 51.9678 165.059 55.9455C165.139 59.9232 161.098 59.1888 161.098 59.1015C161.098 59.0142 161.04 53.3567 161.04 53.3567Z"   fill="#FFBE9D" >
</path>
<path d="M163.515 55.103C163.475 54.9785 163.405 54.8658 163.311 54.7745C163.217 54.6832 163.103 54.6161 162.977 54.5789C162.898 54.5599 162.815 54.5691 162.742 54.605C162.669 54.6409 162.611 54.7011 162.578 54.7754C162.527 54.8919 162.578 54.972 162.527 54.9792C162.476 54.9865 162.44 54.9137 162.469 54.7463C162.491 54.6474 162.545 54.5582 162.621 54.4916C162.732 54.4082 162.869 54.3692 163.006 54.3824C163.168 54.415 163.319 54.4872 163.446 54.5926C163.573 54.6981 163.672 54.8334 163.733 54.9865C163.912 55.3272 164.002 55.7079 163.995 56.0929C164.022 56.4476 163.944 56.8025 163.77 57.1131C163.597 57.4237 163.337 57.6764 163.021 57.8397C162.914 57.8704 162.801 57.8778 162.691 57.8614C162.581 57.8451 162.475 57.8055 162.381 57.7451C162.302 57.6578 162.28 57.5559 162.294 57.5486C162.294 57.5486 162.36 57.5995 162.483 57.6505C162.649 57.7137 162.833 57.7137 162.999 57.6505C163.246 57.4772 163.443 57.2421 163.57 56.9688C163.698 56.6955 163.751 56.3935 163.726 56.0929C163.727 55.7516 163.656 55.414 163.515 55.103Z"   fill="#EB996E" >
</path>
<path d="M142.278 44.3124C141.722 43.9554 141.268 43.4604 140.96 42.8757L140.4 43.0867C141.038 42.1828 141.896 41.4571 142.893 40.9784C143.89 40.4998 144.993 40.2841 146.097 40.3521C148.28 40.4321 152.508 41.2466 154.246 42.5994C154.45 42.7594 154.676 43.0212 154.538 43.2466C154.399 43.4721 154.196 43.4212 153.999 43.4139C151.98 43.5169 149.977 43.8215 148.018 44.323C146.772 44.7631 145.453 44.9629 144.133 44.9121C143.473 44.8759 142.834 44.6693 142.278 44.3124Z"   fill="#1D1D1D" >
</path>
<path d="M141.54 43.0316C142.727 41.9147 144.248 41.2192 145.87 41.0522C150.905 40.5937 159.172 42.1073 163.552 50.76C164.029 49.2625 164.327 47.7137 164.44 46.1463C164.44 44.96 163.712 37.9084 156.436 35.7251C156.421 35.7251 145.462 31.599 141.54 43.0316Z"   fill="#1EBC5D" >
</path>
<g opacity="0.3">
<g opacity="0.3">
<path d="M141.54 43.0316C142.802 41.6832 144.541 40.8815 146.386 40.7975C150.898 40.579 159.426 42.6021 163.552 50.76C164.029 49.2625 164.327 47.7137 164.44 46.1463C164.44 44.96 163.712 37.9084 156.436 35.7251C156.421 35.7251 145.462 31.599 141.54 43.0316Z"   fill="#1D1D1D" >
</path>
</g>
</g>
<path d="M153.879 41.1954C150.349 39.012 144.534 36.8796 140.524 35.8316C139.336 35.4487 138.08 35.3247 136.841 35.4678C136.224 35.5484 135.641 35.8014 135.161 36.1979C134.681 36.5944 134.322 37.1183 134.126 37.7093C133.748 39.2231 136.441 41.5374 137.707 42.4471C138.879 43.2278 140.094 43.9422 141.346 44.5867C141.346 44.5867 141.492 41.8795 145.975 41.29C152.081 40.4894 163.057 49.6811 162.868 49.5283C160.684 45.8895 157.409 43.3786 153.879 41.1954Z" fill-rule="evenodd"  fill="#1EBC5D" >
</path>
<path d="M154.55 38.3601C153.221 37.7332 151.832 37.2444 150.404 36.9016C148.961 36.6782 147.499 36.5975 146.04 36.661C146.451 36.5113 146.883 36.4324 147.32 36.4276C148.375 36.343 149.437 36.4019 150.477 36.6026C151.512 36.8058 152.516 37.1493 153.459 37.6236C153.859 37.8093 154.228 38.058 154.55 38.3601Z"   fill="#FFFFFF" >
</path>
<path d="M138.888 233.64L138.844 234.324C138.844 234.324 126.474 238.452 126.19 240.643L150.174 241.56L150.32 233.895C148.5 234.645 146.545 235.009 144.577 234.965C142.61 234.921 140.673 234.47 138.888 233.64Z"   fill="#1EBC5D" >
</path>
<g opacity="0.6">
<g opacity="0.6">
<path d="M150.183 241.56L150.22 239.721L127.233 239.51C127.233 239.51 126.141 239.917 126.214 240.644L150.183 241.56Z"   fill="#FFFFFF" >
</path>
</g>
</g>
<path d="M138.761 234.378C138.761 234.488 139.334 234.561 139.887 234.947C140.439 235.333 140.715 235.814 140.831 235.778C140.947 235.741 140.831 235.049 140.105 234.626C139.378 234.204 138.739 234.276 138.761 234.378Z"   fill="#1D1D1D" >
</path>
<path d="M136.192 235.283C136.156 235.392 136.649 235.596 137.02 236.092C137.39 236.587 137.47 237.09 137.587 237.09C137.703 237.09 137.819 236.456 137.347 235.851C136.875 235.246 136.199 235.173 136.192 235.283Z"   fill="#1D1D1D" >
</path>
<path d="M134.576 238.13C134.685 238.13 134.882 237.6 134.619 236.975C134.357 236.351 133.817 236.089 133.766 236.176C133.714 236.264 134.028 236.612 134.24 237.128C134.452 237.644 134.459 238.13 134.576 238.13Z"   fill="#1D1D1D" >
</path>
<path d="M154.035 189.374C154.035 189.374 153.125 198.471 152.746 206.331C152.324 215.137 150.905 231.075 150.905 231.075L136.859 231.41L135.978 196.128C135.622 190.829 135.228 185.087 136.968 180.066L141.029 166.529L146.437 149.295L146.138 140.424L155.192 134.187C161.109 134.289 178.35 133.27 178.35 133.27C178.35 133.27 177.906 142.266 177.018 148.743C176.838 150.027 176.363 151.253 175.628 152.323L167.688 163.901L154.035 189.374Z"   fill="#1D1D1D" >
</path>
<path d="M128.27 179.64C126.654 180.95 125.206 198.755 127.87 197.46L124.704 200.45L116.232 198.995L115.06 180.288L128.27 179.64Z"   fill="#FFBE9D" >
</path>
<path d="M114.627 193.45L127.88 192.577L129.154 179.061L129.372 158.603L128.448 156.274C129.462 156.508 130.518 156.496 131.527 156.238C133.033 155.794 155.9 148.872 155.9 148.872L164.83 134.797L152.218 126.42C152.218 126.42 117.124 135.968 113.485 143.523C112.019 145.997 111.334 148.856 111.52 151.725C111.731 156.82 114.627 193.45 114.627 193.45Z"   fill="#1D1D1D" >
</path>
<path d="M116.029 197.971L116.029 198.7C116.029 198.7 103.6 204.255 103.6 206.65L128.64 205.601L127.956 197.28C126.134 198.245 124.126 198.806 122.068 198.926C120.01 199.045 117.95 198.72 116.029 197.971Z"   fill="#1EBC5D" >
</path>
<g opacity="0.6">
<g opacity="0.6">
<path d="M128.62 205.602L128.46 203.6L104.508 205.34C104.508 205.34 103.416 205.871 103.576 206.65L128.62 205.602Z"   fill="#FFFFFF" >
</path>
</g>
</g>
<path d="M115.981 198.796C115.981 198.92 116.606 198.949 117.224 199.312C117.842 199.675 118.184 200.184 118.293 200.126C118.402 200.067 118.191 199.399 117.435 198.949C116.679 198.499 115.945 198.68 115.981 198.796Z"   fill="#1D1D1D" >
</path>
<path d="M113.39 199.99C113.39 200.114 113.899 200.296 114.342 200.797C114.786 201.299 114.916 201.837 115.069 201.83C115.222 201.823 115.236 201.103 114.684 200.514C114.131 199.925 113.383 199.874 113.39 199.99Z"   fill="#1D1D1D" >
</path>
<path d="M112.034 203.2C112.143 203.2 112.288 202.604 111.947 201.951C111.606 201.297 111.025 201.05 110.975 201.152C110.924 201.254 111.294 201.602 111.57 202.14C111.845 202.677 111.911 203.2 112.034 203.2Z"   fill="#1D1D1D" >
</path>
<path d="M122.84 149.47C123.261 149.664 123.649 149.922 123.991 150.234C124.858 150.938 125.638 151.744 126.313 152.634C126.989 153.532 127.551 154.509 127.988 155.544C128.198 155.957 128.34 156.402 128.41 156.86C127.743 155.458 126.959 154.115 126.066 152.845C125.089 151.63 124.01 150.501 122.84 149.47Z"   fill="#1EBC5D" >
</path>
<path d="M125.69 146.69C126.017 147.089 126.287 147.532 126.491 148.007C127.6 150.238 128.232 152.676 128.347 155.165C128.392 155.677 128.37 156.193 128.281 156.7C128.195 156.197 128.144 155.689 128.128 155.18C128.015 153.953 127.805 152.736 127.502 151.542C127.196 150.356 126.797 149.196 126.309 148.072C126.075 147.624 125.868 147.163 125.69 146.69Z"   fill="#1EBC5D" >
</path>
<path d="M149.195 141.5C149.1 141.5 147.513 145.867 145.657 151.253C143.8 156.639 142.373 161.093 142.475 161.13C142.577 161.166 144.157 156.799 146.013 151.377C147.87 145.954 149.297 141.536 149.195 141.5Z"   fill="#1EBC5D" >
</path>
<path d="M143.85 77.0993L138.122 74.7998L123.18 82.9132L129.279 96.8698L142.431 90.3426L143.85 77.0993Z"   fill="#1EBC5D" >
</path>
<path d="M138.12 74.7938L147.204 71.3587C147.204 71.3587 149.19 75.5578 153.536 74.2693C157.881 72.9815 162.67 69.1099 162.67 69.1099C162.67 69.1099 170.932 72.3846 173.45 73.8764C175.968 75.3681 177.329 114.077 177.329 114.077L178.013 129.053L178.421 131.877C178.595 133.229 178.684 134.59 178.69 135.953C163.296 139.41 148.077 135.749 139.918 131.223C139.918 131.223 138.841 130.378 139.306 128.45C139.772 126.522 140.762 126.187 140.762 126.187L140.558 109.259L139.044 91.9466L138.12 74.7938Z"   fill="#1EBC5D" >
</path>
<path d="M130 118.576L150.434 110.12L163.095 82.0801L174.36 86.8105C174.36 86.8105 162.266 117.215 157.572 119.74C152.879 122.266 133.522 123.43 133.522 123.43L130 118.576Z"   fill="#FFBE9D" >
</path>
<path d="M173.469 73.8861C173.469 73.8861 177.727 76.0186 177.72 84.1701C177.72 91.2516 175.631 102.54 175.631 102.54L155.57 95.56L161.772 81.1496C163.228 77.7145 166.459 71.3971 173.469 73.8861Z"   fill="#1EBC5D" >
</path>
<path d="M161.504 80.533C162.067 79.2342 162.752 77.9915 163.549 76.8219C164.224 75.799 165.162 74.9768 166.264 74.4425C167.894 73.7041 169.687 73.4006 171.469 73.5621C171.949 73.6172 172.417 73.7447 172.859 73.9406C173.003 74.0343 173.154 74.1169 173.31 74.1879C173.31 74.1879 173.31 74.1515 173.208 74.1007C173.112 74.0141 173.007 73.9386 172.895 73.875C172.458 73.6402 171.982 73.4849 171.49 73.4165C169.674 73.1925 167.831 73.4613 166.155 74.1952C164.999 74.7375 164.01 75.5824 163.295 76.6402C162.472 77.8172 161.768 79.0726 161.191 80.3877C159.888 83.1162 158.636 86.2087 157.436 89.4614C156.708 91.5427 155.98 93.5799 155.368 95.4937L155.31 95.6683L155.477 95.7268L168.222 100.093L171.949 101.33L172.953 101.65C173.068 101.692 173.188 101.719 173.31 101.73C173.202 101.673 173.09 101.625 172.975 101.584L171.993 101.206L168.302 99.8669L155.601 95.3773L155.71 95.6101C156.344 93.7037 157.035 91.6664 157.792 89.5926C158.986 86.3251 160.23 83.2619 161.504 80.533Z" fill-rule="evenodd"  fill="#1D1D1D" >
</path>
<path d="M150.412 131.337C149.517 130.981 148.65 130.668 147.879 130.297C147.107 129.926 146.379 129.569 145.695 129.242C145.011 128.914 144.487 128.558 143.985 128.26C143.552 128.017 143.131 127.752 142.725 127.467C142.392 127.214 142.039 126.987 141.67 126.79C141.982 127.082 142.315 127.349 142.667 127.59C142.995 127.838 143.395 128.136 143.897 128.441C144.4 128.747 144.946 129.133 145.593 129.475C146.241 129.817 146.947 130.202 147.74 130.58C148.534 130.959 149.378 131.308 150.288 131.664C152.277 132.387 154.321 132.945 156.402 133.331C158.488 133.677 160.598 133.847 162.712 133.84C163.688 133.84 164.619 133.796 165.478 133.687C166.279 133.627 167.076 133.525 167.865 133.381C168.593 133.28 169.241 133.112 169.816 132.989C170.391 132.865 170.872 132.727 171.272 132.603C171.686 132.501 172.09 132.362 172.48 132.188C172.059 132.248 171.643 132.338 171.235 132.457C170.835 132.559 170.355 132.683 169.78 132.778C169.205 132.872 168.564 133.032 167.836 133.112C167.109 133.192 166.315 133.331 165.456 133.374C164.597 133.418 163.688 133.469 162.72 133.491C160.627 133.481 158.538 133.301 156.475 132.952C154.413 132.577 152.386 132.037 150.412 131.337Z"   fill="#1D1D1D" >
</path>
<path d="M147.2 91.1499L141.59 91.1499L141.59 93.8099L147.2 93.8099L147.2 91.1499Z"   fill="#FFFFFF" >
</path>
<path d="M138.419 82.9102C138.31 82.9102 138.521 87.0148 138.876 92.0511C139.232 97.0872 139.602 101.177 139.711 101.17C139.82 101.163 139.61 97.0655 139.254 92.0292C138.898 86.9931 138.542 82.9029 138.419 82.9102Z"   fill="#1D1D1D" >
</path>
<path d="M239.69 101.73L186.68 101.73L186.68 113.31L239.69 113.31L239.69 101.73Z"   fill="#1DE56D" >
</path>
<path d="M243.22 113.44L183.1 113.44L183.1 159.81L243.22 159.81L243.22 113.44Z"   fill="#1DE56D" >
</path>
<path d="M198.166 159.48C198.232 159.48 198.29 149.146 198.29 136.395C198.29 123.644 198.232 113.31 198.166 113.31C198.101 113.31 198.05 123.644 198.05 136.395C198.05 149.146 198.101 159.48 198.166 159.48Z"   fill="#1D1D1D" >
</path>
<path d="M192.81 149.26L185.2 149.26L185.2 156.87L192.81 156.87L192.81 149.26Z"   fill="#F5F5F5" >
</path>
<g opacity="0.3">
<path d="M224.92 113.44L218.09 113.44L218.09 123.34L224.92 123.34L224.92 113.44Z"   fill="#FFFFFF" >
</path>
</g>
<g opacity="0.3">
<path d="M224.88 149.91L218.05 149.91L218.05 159.81L224.88 159.81L224.88 149.91Z"   fill="#FFFFFF" >
</path>
</g>
<g opacity="0.3">
<path d="M198.17 113.31L183.11 113.31L183.11 159.93L198.17 159.93L198.17 113.31Z"   fill="#1D1D1D" >
</path>
</g>
<path d="M183.31 113.44C183.31 113.55 196.7 113.63 213.211 113.63C229.723 113.63 243.12 113.55 243.12 113.44C243.12 113.33 229.73 113.25 213.211 113.25C196.693 113.25 183.31 113.338 183.31 113.44Z"   fill="#1D1D1D" >
</path>
<g opacity="0.3">
<path d="M201.52 101.73L186.68 101.73L186.68 113.23L201.52 113.23L201.52 101.73Z"   fill="#1D1D1D" >
</path>
</g>
<path d="M201.626 113.16C201.815 111.301 201.879 109.432 201.817 107.565C201.879 105.698 201.815 103.829 201.626 101.97C201.433 103.829 201.369 105.698 201.436 107.565C201.369 109.432 201.433 111.302 201.626 113.16Z"   fill="#1D1D1D" >
</path>
<path d="M224.12 101.73L216.66 101.73L216.66 105.24L224.12 105.24L224.12 101.73Z"   fill="#FFFFFF" >
</path>
<path d="M222.183 92.7717C221.279 94.6061 220.062 96.2685 218.587 97.6844C217.008 99.1924 215.323 100.584 213.542 101.847L213.753 101.847L213.484 101.687C211.563 100.624 209.768 99.3467 208.134 97.8808C206.63 96.5153 205.548 94.7473 205.018 92.7864C204.744 91.9022 204.744 90.9559 205.018 90.0717C205.099 89.8824 205.225 89.7165 205.387 89.5893C205.549 89.4621 205.74 89.3777 205.943 89.3439C206.353 89.3098 206.763 89.4066 207.115 89.6205C207.818 90.0594 208.447 90.6073 208.978 91.2435C209.509 91.8143 209.996 92.425 210.434 93.0701C211.708 95.0347 212.626 97.2072 213.149 99.4893C213.339 100.297 213.455 100.945 213.535 101.36L213.622 101.847L213.673 101.964C213.683 101.908 213.683 101.852 213.673 101.796L213.615 101.294C213.564 100.865 213.469 100.224 213.295 99.4019C212.825 97.0767 211.935 94.8569 210.667 92.8518C210.232 92.1907 209.745 91.5652 209.211 90.9814C208.669 90.3118 208.019 89.7363 207.289 89.2785C206.876 89.03 206.394 88.918 205.913 88.9581C205.66 89.0014 205.421 89.1073 205.219 89.2662C205.017 89.425 204.858 89.6318 204.756 89.8679C204.439 90.8091 204.416 91.8246 204.69 92.7791C205.228 94.814 206.337 96.6527 207.886 98.0774C209.539 99.5643 211.356 100.858 213.302 101.935L213.571 102.095L213.681 102.16L213.783 102.087C215.581 100.811 217.284 99.4049 218.878 97.8808C220.373 96.4522 221.605 94.7722 222.518 92.9173C222.75 92.4785 222.924 92.0112 223.035 91.5272C223.153 91.0416 223.11 90.5304 222.911 90.0717C222.812 89.8366 222.658 89.6289 222.462 89.4667C222.265 89.3044 222.032 89.1923 221.783 89.1402C221.3 89.0905 220.815 89.2199 220.421 89.504C220.064 89.7565 219.736 90.0495 219.446 90.3774C219.155 90.6831 218.885 90.996 218.623 91.3017C218.125 91.895 217.658 92.5144 217.226 93.1574C215.904 95.0906 214.89 97.2166 214.219 99.4601C214.043 100.068 213.9 100.685 213.79 101.309L213.717 101.796C213.714 101.852 213.714 101.908 213.717 101.964C213.717 101.964 213.717 101.913 213.768 101.804L213.877 101.323C213.972 100.901 214.125 100.283 214.372 99.5038C215.083 97.3046 216.11 95.2207 217.422 93.3176C217.856 92.6869 218.322 92.0796 218.82 91.4981C219.082 91.1925 219.351 90.8868 219.642 90.5958C219.919 90.2859 220.232 90.0098 220.574 89.7733C220.9 89.5367 221.302 89.428 221.702 89.4676C221.898 89.5075 222.08 89.5947 222.234 89.7217C222.387 89.8485 222.507 90.0112 222.583 90.1954C222.955 90.9814 222.583 91.9349 222.183 92.7717Z" fill-rule="evenodd"  fill="#1D1D1D" >
</path>
<path d="M182.92 133.94C182.92 134.042 196.399 134.13 213.015 134.13C229.631 134.13 243.11 134.042 243.11 133.94C243.11 133.838 229.638 133.75 213.015 133.75C196.392 133.75 182.92 133.83 182.92 133.94Z"   fill="#1D1D1D" >
</path>
<path d="M213.56 160.55C213.662 160.55 213.75 147.291 213.75 130.938C213.75 114.586 213.662 101.32 213.56 101.32C213.458 101.32 213.37 114.579 213.37 130.938C213.37 147.298 213.451 160.55 213.56 160.55Z"   fill="#1D1D1D" >
</path>
</g>
<defs>
<clipPath id="clip-path-McR5YD6KWr">
<path d="M0 297L297 297L297 0L0 0L0 297Z" fill="white"/>
</clipPath>
</defs>
</svg>
