<svg xmlns="http://www.w3.org/2000/svg" xmlns:xlink="http://www.w3.org/1999/xlink" width="104.31005859375" height="93.47021484375" viewBox="0 0 104.31005859375 93.47021484375" fill="none">
<path d="M64.3101 54.5416L64.3101 54.6702L88.9971 54.6702L89.2588 47.078C89.27 46.7488 89.2099 46.4212 89.0824 46.1175C88.9552 45.8138 88.7635 45.5414 88.5208 45.3189C88.278 45.0964 87.9899 44.9293 87.6762 44.8288C87.3629 44.7284 87.0313 44.6971 86.7044 44.7371L72.3382 46.4967L72.3365 46.4967C70.2067 46.5025 68.1661 47.3524 66.6616 48.8603C65.1571 50.3682 64.3116 52.4112 64.3101 54.5416Z"   fill="#1EBC5D" >
</path>
<path d="M92.5361 48.4502L75.3141 48.4502C75.085 48.4502 74.8582 48.4053 74.6466 48.3177C74.4349 48.2301 74.2427 48.1015 74.0808 47.9395C73.9188 47.7776 73.7904 47.5854 73.7026 47.3737C73.615 47.1621 73.5701 46.9353 73.5701 46.7062L73.5701 29.4842C73.5701 29.2552 73.615 29.0284 73.7026 28.8167C73.7904 28.6051 73.9188 28.4129 74.0808 28.2509C74.2427 28.089 74.4349 27.9606 74.6466 27.8728C74.8582 27.7852 75.085 27.7402 75.3141 27.7402L92.5361 27.7402C92.7651 27.7402 92.9919 27.7852 93.2036 27.8728C93.4152 27.9606 93.6074 28.089 93.7694 28.2509C93.9313 28.4129 94.0597 28.6051 94.1475 28.8167C94.2351 29.0284 94.2801 29.2552 94.2801 29.4842L94.2801 46.7062C94.2801 46.9353 94.2351 47.1621 94.1475 47.3737C94.0597 47.5854 93.9313 47.7776 93.7694 47.9395C93.6074 48.1015 93.4152 48.2299 93.2036 48.3177C92.9919 48.4053 92.7651 48.4502 92.5361 48.4502Z"   fill="#CCCCCC" >
</path>
<path d="M87.3184 42.1962C87.8007 42.2896 88.3003 42.1877 88.7076 41.9131C89.1149 41.6385 89.3967 41.2135 89.4912 40.7313L90.1162 37.521C90.2095 37.0385 90.1077 36.5388 89.8332 36.1313C89.5586 35.7239 89.1337 35.442 88.6516 35.3475L80.5215 33.7638C80.0391 33.6704 79.5396 33.7722 79.1323 34.0469C78.725 34.3215 78.4431 34.7465 78.3487 35.2287L77.7237 38.439C77.6304 38.9214 77.7322 39.4212 78.0067 39.8286C78.2813 40.236 78.7062 40.5179 79.1883 40.6124L87.3184 42.1962Z"   fill="#1D1D1D" >
</path>
<path d="M87.5319 37.6874C87.554 37.5739 87.5301 37.4563 87.4655 37.3604C87.4008 37.2645 87.3007 37.1983 87.1872 37.1762L80.9795 35.968C80.8659 35.9459 80.7483 35.9698 80.6523 36.0344C80.5564 36.099 80.4901 36.1991 80.468 36.3126C80.4459 36.426 80.4698 36.5437 80.5344 36.6395C80.5991 36.7354 80.6992 36.8017 80.8128 36.8237L87.0204 38.0319C87.134 38.054 87.2517 38.0301 87.3476 37.9655C87.4435 37.9009 87.5098 37.8008 87.5319 37.6874Z"   fill="#FFFFFF" >
</path>
<path d="M81.7424 37.9456C81.7108 37.9934 81.6889 38.047 81.678 38.1034C81.667 38.1597 81.6673 38.2176 81.6786 38.2738C81.69 38.33 81.7124 38.3834 81.7443 38.431C81.7763 38.4786 81.8174 38.5194 81.8651 38.5511C81.9128 38.5827 81.9663 38.6047 82.0224 38.6157L85.2308 39.2419C85.3442 39.2641 85.4618 39.2401 85.5577 39.1754C85.6535 39.1106 85.7198 39.0104 85.7419 38.8966C85.764 38.7829 85.7401 38.665 85.6755 38.569C85.6109 38.4729 85.5109 38.4065 85.3974 38.3843L82.1891 37.7581C82.1329 37.7471 82.0751 37.7473 82.019 37.7587C81.9629 37.7702 81.9096 37.7925 81.8622 37.8246C81.8147 37.8567 81.774 37.8978 81.7424 37.9456Z"   fill="#FFFFFF" >
</path>
<path d="M94.1475 28.816C94.0597 28.6045 93.9313 28.4124 93.7694 28.2505C93.6074 28.0887 93.4152 27.9603 93.2036 27.8728C92.9919 27.7852 92.7651 27.7402 92.5361 27.7402L75.3141 27.7402C75.085 27.7402 74.8582 27.7852 74.6466 27.8728C74.4349 27.9603 74.2427 28.0887 74.0808 28.2505C73.9188 28.4124 73.7902 28.6045 73.7026 28.816C73.615 29.0274 73.5701 29.2541 73.5701 29.4829L73.5701 31.7702L94.2801 31.7702L94.2801 29.4829C94.2801 29.2541 94.2351 29.0274 94.1475 28.816Z"   fill="#B3B3B3" >
</path>
<path d="M32.2198 32.4909C32.3395 32.105 32.5421 31.7498 32.8137 31.4507C33.0852 31.1514 33.419 30.9154 33.7915 30.7592C34.1644 30.6031 34.5666 30.5306 34.9703 30.5468C35.3739 30.563 35.7689 30.6676 36.128 30.8531L59.8166 22.3501L60.8601 28.2706L37.2465 34.7671C36.8953 35.3497 36.3423 35.7829 35.6927 35.9849C35.0433 36.1867 34.3422 36.1434 33.7228 35.8628C33.1031 35.5823 32.6079 35.084 32.3309 34.4626C32.0538 33.8412 32.0144 33.1396 32.2198 32.4909Z"   fill="#FFB8B8" >
</path>
<g opacity="0.2">
<path d="M35.6927 35.9849C35.0433 36.1867 34.3422 36.1434 33.7228 35.8628C33.1031 35.5823 32.6079 35.084 32.3309 34.4626C32.0538 33.8412 32.0144 33.1396 32.2198 32.4909C32.3395 32.105 32.5421 31.7498 32.8137 31.4507C33.0852 31.1514 33.419 30.9154 33.7915 30.7592C34.1644 30.6031 34.5666 30.5306 34.9703 30.5468C35.3739 30.563 35.7689 30.6676 36.128 30.8531L59.8166 22.3501L60.8601 28.2706L37.2465 34.7671C36.8953 35.3497 36.3423 35.7829 35.6927 35.9849Z"   fill="#1D1D1D" >
</path>
</g>
<path d="M58.1378 29.7156C58.2649 29.8403 58.4174 29.9362 58.5848 29.9966C58.7522 30.0571 58.9307 30.0807 59.1081 30.066C59.2854 30.0511 59.4576 29.9982 59.6127 29.9109L65.0481 26.8499C65.8968 26.5193 66.5798 25.8654 66.9474 25.0317C67.315 24.1979 67.3371 23.2525 67.0091 22.4024C66.681 21.5524 66.0296 20.8671 65.1973 20.497C64.3652 20.1269 63.4202 20.102 62.5697 20.4278L56.5002 21.7747C56.3264 21.8133 56.163 21.889 56.021 21.9964C55.8791 22.1039 55.762 22.2408 55.6777 22.3977C55.5935 22.5546 55.544 22.7278 55.5326 22.9055C55.5212 23.0832 55.5483 23.2614 55.6119 23.4277L57.8484 29.2739C57.912 29.4402 58.0107 29.5908 58.1378 29.7156Z"   fill="#1EBC5D" >
</path>
<path d="M30.3499 37.8999L38.8399 41.7581L37.7253 45.9536C35.5728 54.0556 35.0016 62.4959 36.0428 70.8137L29.8354 72.1099L24.6899 58.9917L26.4908 44.0731L30.3499 37.8999Z"   fill="#1EBC5D" >
</path>
<path d="M13.6951 57.3198C19.2735 57.3198 23.8195 61.3735 24.0401 66.4498L3.3501 66.4498C3.57065 61.3735 8.11666 57.3198 13.6951 57.3198Z"   fill="#1D1D1D" >
</path>
<path d="M56.983 85.9996L44.505 85.9996C28.2989 85.9996 25.4697 72.3657 25.4697 72.3657C16.9805 68.7646 18.0425 58.1925 18.0425 58.1925C18.333 35.2723 31.3863 37.3812 31.3863 37.3812C31.3863 37.3812 31.1416 44.5152 31.0244 44.7372C22.7068 60.4751 36.4346 78.9254 53.9083 75.5312C54.238 75.4669 54.5549 75.4022 54.8582 75.3365C57.0723 74.8741 59.0272 73.5858 60.3254 71.7334C61.6236 69.8811 62.1673 67.6038 61.8462 65.365C60.1249 51.5417 68.6863 51.7865 68.6863 51.7865L81.2051 51.7865L87.7063 45.9354C87.9357 45.7286 88.2126 45.5816 88.5117 45.5066C88.8116 45.4317 89.1251 45.4312 89.4242 45.5057C89.7241 45.5796 90.0011 45.7261 90.2313 45.932C90.4615 46.1379 90.6374 46.3968 90.7445 46.6869L91.5805 48.9569C91.5805 48.9569 103.928 50.2432 102.899 62.3333L99.0816 62.3333C99.0909 62.6769 99.0773 63.0205 99.0408 63.3622L70.5512 63.131C68.8808 63.1174 67.4068 64.4704 67.4 66.1403C67.3983 66.5472 67.4782 66.9497 67.6362 67.3244C67.7934 67.6992 68.0253 68.0384 68.3167 68.3217C68.6081 68.6049 68.9539 68.8269 69.3337 68.9734C69.7126 69.1199 70.1179 69.1885 70.524 69.1749L75.1169 69.0215C76.5315 75.3243 73.0592 79.5688 69.2326 82.2374C65.6303 84.7137 61.3551 86.0268 56.983 85.9996Z"   fill="#1D1D1D" >
</path>
<path d="M0 78.99C0 86.9815 6.47851 93.46 14.47 93.46C22.4615 93.46 28.94 86.9815 28.94 78.99C28.94 70.9985 22.4615 64.52 14.47 64.52C6.47851 64.52 0 70.9985 0 78.99Z"   fill="#1D1D1D" >
</path>
<path d="M10.9199 78.9952C10.9199 80.953 12.5071 82.5402 14.4649 82.5402C16.4228 82.5402 18.0099 80.953 18.0099 78.9952C18.0099 77.0374 16.4228 75.4502 14.4649 75.4502C12.5071 75.4502 10.9199 77.0374 10.9199 78.9952Z"   fill="#FFFFFF" >
</path>
<path d="M70.8701 76.8049C70.8701 86.0031 78.3269 93.4599 87.5251 93.4599C96.7233 93.4599 104.18 86.0031 104.18 76.8049C104.18 67.6067 96.7233 60.1499 87.5251 60.1499C78.3269 60.1499 70.8701 67.6067 70.8701 76.8049Z"   fill="#1D1D1D" >
</path>
<path d="M83.4399 76.815C83.4399 79.071 85.2689 80.9 87.5249 80.9C89.781 80.9 91.6099 79.071 91.6099 76.815C91.6099 74.5589 89.781 72.73 87.5249 72.73C85.2689 72.73 83.4399 74.5589 83.4399 76.815Z"   fill="#FFFFFF" >
</path>
<path d="M40.9613 30.8074C40.6227 30.4949 40.226 30.2522 39.7937 30.0932L31.0372 26.8704C30.2763 26.5904 29.4678 26.4628 28.6578 26.4952C27.8478 26.5275 27.0521 26.719 26.316 27.0587C25.58 27.3985 24.9182 27.8798 24.3682 28.4753C23.8184 29.0708 23.3911 29.7688 23.111 30.5292C22.8583 31.212 22.7294 31.9341 22.73 32.6619C22.7333 33.586 22.9426 34.4979 23.3423 35.3311C23.7423 36.1643 24.3229 36.898 25.042 37.4787C25.5614 37.8953 26.1453 38.2244 26.7708 38.4532L38.8195 42.8902L41.8739 34.5964C42.0331 34.1643 42.1057 33.7049 42.0873 33.2446C42.0689 32.7844 41.9599 32.3322 41.7667 31.914C41.5735 31.4958 41.2999 31.1198 40.9613 30.8074Z"   fill="#1D1D1D" >
</path>
<path d="M30.191 26.7582C29.3087 26.5663 28.3947 26.5745 27.516 26.7821C26.6373 26.9897 25.8163 27.3914 25.1132 27.9578C24.41 28.5241 23.8427 29.2407 23.4528 30.055C23.0629 30.8692 22.8604 31.7605 22.8601 32.6633C22.8608 33.5687 23.0645 34.4624 23.4563 35.2787C23.8481 36.0949 24.4178 36.8131 25.1237 37.3801C26.2068 37.0944 27.2147 36.5765 28.0773 35.862C28.9398 35.1475 29.6364 34.2538 30.1186 33.243C30.6009 32.2321 30.8571 31.1284 30.8696 30.0085C30.8821 28.8886 30.6506 27.7795 30.191 26.7582Z"   fill="#1EBC5D" >
</path>
<path d="M97.1101 59.6348C97.1101 62.051 98.7219 64.0098 100.71 64.0098C102.698 64.0098 104.31 62.051 104.31 59.6348C104.31 57.2185 102.698 55.2598 100.71 55.2598C98.7219 55.2598 97.1101 57.2185 97.1101 59.6348Z"   fill="#1EBC5D" >
</path>
<path d="M53.0994 75.1199L49.9489 75.1199L48.45 66.9399L53.1 66.9402L53.0994 75.1199Z"   fill="#FFB8B8" >
</path>
<path d="M47.6987 74.0898L47.6984 74.0898C47.1786 74.0898 46.6639 74.1923 46.1835 74.3913C45.7033 74.5904 45.2669 74.8821 44.8994 75.2499C44.5318 75.6177 44.2403 76.0544 44.0413 76.535C43.8424 77.0155 43.74 77.5306 43.74 78.0508L43.74 78.1795L53.9098 78.1798L53.91 74.0901L47.6987 74.0898Z"   fill="#1D1D1D" >
</path>
<path d="M42.1006 56.976L48.3873 71.0739C48.478 71.2781 48.6264 71.4515 48.8137 71.5733C49.0011 71.6951 49.2198 71.76 49.4432 71.76C49.4802 71.76 49.5168 71.7582 49.5541 71.7546L53.9181 71.4369C54.0947 71.4205 54.2649 71.3639 54.4162 71.2713C54.5671 71.1787 54.6951 71.0524 54.7897 70.9026C54.8845 70.7528 54.9433 70.5831 54.9622 70.4071C54.9808 70.2308 54.959 70.0524 54.8979 69.8859L49.0575 56.7637C49.0156 56.6466 48.9987 56.5221 49.0072 56.3983C49.0159 56.2744 49.0502 56.1538 49.1078 56.0436C49.1654 55.9322 49.2457 55.8345 49.3437 55.7565C49.4418 55.6785 49.5552 55.6219 49.6765 55.5909C52.4229 54.8729 59.4694 52.9614 65.5693 50.7249C68.1827 49.7666 69.8286 48.3815 70.4613 46.6087C71.2953 44.2713 70.0614 42.1396 70.0084 42.05L69.9671 41.98L64.2274 42.5017L58.0047 43.0309L44.3688 50.3434C43.2261 50.9613 42.3584 51.987 41.938 53.2163C41.5177 54.4453 41.5756 55.7875 42.1006 56.976Z"   fill="#1D1D1D" >
</path>
<path d="M56.9099 10.2199C56.9099 13.7103 59.7395 16.5399 63.2299 16.5399C66.7203 16.5399 69.5499 13.7103 69.5499 10.2199C69.5499 6.72949 66.7203 3.8999 63.2299 3.8999C59.7395 3.8999 56.9099 6.72949 56.9099 10.2199Z"   fill="#FFB8B8" >
</path>
<path d="M54.8995 75.89L51.7489 75.89L50.25 67.71L54.9 67.7102L54.8995 75.89Z"   fill="#FFB8B8" >
</path>
<path d="M49.4987 74.8599L49.4984 74.8599C48.9786 74.8599 48.4639 74.9623 47.9836 75.1613C47.5034 75.3604 47.067 75.6521 46.6994 76.02C46.3319 76.3878 46.0403 76.8244 45.8414 77.305C45.6425 77.7856 45.54 78.3006 45.54 78.8208L45.54 78.9495L55.7098 78.9499L55.71 74.8602L49.4987 74.8599Z"   fill="#1D1D1D" >
</path>
<path d="M56.2162 72.0413C56.3672 71.9487 56.4952 71.8224 56.5897 71.6726C56.6846 71.5228 56.7433 71.3531 56.7622 71.1771C56.7809 71.0008 56.759 70.8224 56.6979 70.6559L50.8575 57.5337C50.8157 57.4166 50.7988 57.2922 50.8072 57.1683C50.8159 57.0444 50.8503 56.9238 50.9079 56.8136C50.9655 56.7022 51.0458 56.6045 51.1438 56.5265C51.2418 56.4485 51.3553 56.3919 51.4766 56.3609C54.223 55.643 61.2694 53.7314 67.3693 51.4949C69.9828 50.5366 71.6287 49.1515 72.2614 47.3787C73.0954 45.0413 71.8614 42.9096 71.8085 42.82L71.7672 42.75L66.0274 43.2717L59.8048 43.8009L46.1688 51.1134C45.0262 51.7313 44.1584 52.757 43.7381 53.9863C43.3177 55.2153 43.3756 56.5575 43.9007 57.746L50.1873 71.8439C50.2781 72.0482 50.4264 72.2215 50.6138 72.3433C50.8011 72.4651 51.0199 72.53 51.2433 72.53C51.2802 72.53 51.3169 72.5282 51.3541 72.5246L55.7182 72.2069C55.8948 72.1905 56.0649 72.1339 56.2162 72.0413Z"   fill="#1D1D1D" >
</path>
<path d="M61.2786 20.115L67.9689 17.7998C67.9689 17.7998 72.1689 21.0258 70.1513 29.0288C69.0979 33.1587 69.4047 37.5179 71.0261 41.4595C71.2213 41.9473 71.4464 42.4225 71.7 42.8825C71.7 42.8825 64.2377 51.8866 57.29 45.1978L59.9919 32.2064C59.9919 32.2064 55.7462 23.588 61.2786 20.115Z"   fill="#1EBC5D" >
</path>
<path d="M91.3631 15.1158C90.0039 15.205 88.6499 14.8726 87.4865 14.164C84.8728 12.5722 83.4291 9.23472 80.4979 8.35612C78.8756 7.87001 77.1337 8.26156 75.4942 8.68556C73.8548 9.1097 72.1453 9.56802 70.4909 9.20692C68.8364 8.84596 67.2887 7.35929 67.4992 5.67923L68.3252 5.27278C69.4583 6.19514 71.1873 5.7855 72.4036 4.97593C73.6203 4.16649 74.6072 3.01378 75.9233 2.3791C78.2435 1.26031 81.0488 2.00404 83.307 3.24347C85.5653 4.48276 87.567 6.195 89.9525 7.16763C92.3376 8.14026 95.3816 8.18828 97.1876 6.35181C97.6321 7.63939 97.6685 9.03283 97.2917 10.3418C96.9149 11.6508 96.1436 12.8118 95.0824 13.6661C94.0216 14.5205 92.7225 15.0267 91.3631 15.1158Z"   fill="#1D1D1D" >
</path>
<path d="M32.4006 34.2019C32.2024 33.5515 32.2497 32.8509 32.5338 32.2329C32.6999 31.8648 32.9449 31.5376 33.2512 31.2743C33.5578 31.0112 33.9181 30.8183 34.3074 30.7093C34.6963 30.6005 35.1045 30.5781 35.5031 30.644C35.9017 30.7099 36.281 30.8624 36.6145 31.0906L61.1749 25.5801L61.48 31.5805L37.242 35.1103C36.8212 35.6447 36.2191 36.0062 35.5496 36.1263C34.88 36.2465 34.1897 36.117 33.6092 35.7623C33.029 35.4076 32.5989 34.8524 32.4006 34.2019Z"   fill="#FFB8B8" >
</path>
<path d="M57.0586 25.1151C56.9555 25.2605 56.885 25.4263 56.8518 25.6013C56.8186 25.7763 56.8235 25.9564 56.8661 26.1293L56.8661 26.1293L58.3649 32.2075C58.4076 32.3805 58.4869 32.5422 58.5978 32.6817C58.7085 32.8211 58.848 32.9351 59.0067 33.0157C59.1654 33.0964 59.3397 33.1419 59.5176 33.1491C59.6955 33.1563 59.8728 33.1251 60.0376 33.0576L65.8102 30.6907C66.6939 30.4679 67.4531 29.9034 67.9213 29.1212C68.3895 28.339 68.5283 27.4029 68.3075 26.5183C68.0866 25.6338 67.524 24.873 66.7431 24.4029C65.9623 23.9329 65.0269 23.792 64.1423 24.0111L57.9517 24.5984C57.7744 24.6153 57.6029 24.6701 57.4488 24.7594C57.2947 24.8486 57.1616 24.9699 57.0586 25.1151Z" fill-rule="evenodd"  fill="#1EBC5D" >
</path>
<path d="M33.5701 35.1999C33.5701 36.194 34.376 36.9999 35.3701 36.9999C36.3642 36.9999 37.1701 36.194 37.1701 35.1999C37.1701 34.2058 36.3642 33.3999 35.3701 33.3999C34.376 33.3999 33.5701 34.2058 33.5701 35.1999Z"   fill="#1EBC5D" >
</path>
</svg>
