<svg xmlns="http://www.w3.org/2000/svg" xmlns:xlink="http://www.w3.org/1999/xlink" width="164" height="164" viewBox="0 0 164 164" fill="none">
<rect  x="0" y="0" width="164" height="164" rx="32"    fill="#1EBC5D" fill-opacity="0.2">
</rect>
<path d="M63.4373 69.99C61.8185 66.0819 61.3945 61.7801 62.2206 57.6307C63.0458 53.4812 65.0825 49.6692 68.074 46.6771C71.0656 43.6851 74.877 41.6479 79.0266 40.822C83.1763 39.9973 87.4774 40.4202 91.3861 42.0392C95.2948 43.6594 98.635 46.4007 100.985 49.9187C103.336 53.4367 104.591 57.5733 104.591 61.8036C104.591 64.6128 104.037 67.3951 102.962 69.99C101.888 72.586 100.312 74.9443 98.3258 76.9311C96.339 78.9168 93.9808 80.4925 91.3861 81.5679C88.7905 82.6434 86.0092 83.1963 83.1999 83.1963C78.9688 83.1963 74.8332 81.9416 71.3161 79.5916C67.7981 77.2404 65.0562 73.8993 63.4373 69.99ZM83.1999 18C71.5833 18 60.4423 22.6145 52.2289 30.8303C44.0147 39.0448 39.3999 50.187 39.3999 61.8036C39.3999 83.6544 79.8045 135.15 79.8045 135.15L83.1999 135.15C83.1999 135.15 127 85.995 127 61.8036C127 50.187 122.385 39.0448 114.171 30.8303C105.958 22.6145 94.8165 18 83.1999 18Z" stroke="rgba(46, 53, 58, 1)" stroke-width="1" stroke-linejoin="round" stroke-linecap="round"  fill-rule="evenodd"  fill="#2E353A" >
</path>
<path d="M67.9162 79.5916C64.3982 77.2404 61.6563 73.8993 60.0374 69.99C58.4186 66.0819 57.9946 61.7801 58.8207 57.6307C59.6459 53.4812 61.6826 49.6692 64.6741 46.6771C67.6656 43.6851 71.4771 41.6479 75.6267 40.822C79.7764 39.9973 84.0775 40.4202 87.9862 42.0392C91.8949 43.6594 95.2351 46.4007 97.5854 49.9187C99.9357 53.4367 101.191 57.5733 101.191 61.8036C101.191 67.4771 98.9371 72.9187 94.9259 76.9311C90.9138 80.9424 85.473 83.1963 79.8 83.1963C75.5689 83.1963 71.4333 81.9416 67.9162 79.5916ZM48.829 30.8303C40.6148 39.0448 36 50.187 36 61.8036C36 85.995 79.8 135.15 79.8 135.15C79.8 135.15 123.6 85.995 123.6 61.8036C123.6 50.187 118.985 39.0448 110.771 30.8303C102.558 22.6145 91.4166 18 79.8 18C68.1834 18 57.0424 22.6145 48.829 30.8303Z" stroke="rgba(46, 53, 58, 1)" stroke-width="1" stroke-linejoin="round" stroke-linecap="round"  fill-rule="evenodd"  fill="#1EBC5D" >
</path>
<path d="M64.4399 88.4907L69.2751 80.2598L69.3599 83.2297L66.4758 88.9998L64.4399 88.4907Z" stroke="rgba(46, 53, 58, 1)" stroke-width="1" stroke-linejoin="round" stroke-linecap="round"    fill="#B5FFD2" >
</path>
<path d="M68.7666 144.731C68.797 144.687 65.592 143.033 65.3713 142.873C65.1507 142.714 63.3648 141.458 63.4225 141.298C63.4225 141.298 67.6122 129.945 69.7036 127.039C71.795 124.132 73.3398 121.946 73.9747 120.13C74.6097 118.313 75.18 116.592 75.18 116.592L69.364 116.31C69.0916 117.744 68.4662 119.087 67.5443 120.218C65.9994 122.129 63.908 125.857 63.8096 129.402C63.711 132.946 59.6232 142.755 60.0749 143.481C60.5265 144.208 64.5294 145.209 66.0741 145.209C66.8856 145.209 68.23 145.522 68.7666 144.731Z"   fill="#B5FFD2" >
</path>
<g style="mix-blend-mode:multiply">
<path d="M68.22 119.254C69.9785 120.008 71.826 120.534 73.7176 120.82C73.8193 120.585 73.911 120.358 73.989 120.141C74.627 118.32 75.17 116.592 75.17 116.592L69.3568 116.32C69.1627 117.36 68.7772 118.355 68.22 119.254Z"   fill="#92E3A9" >
</path>
</g>
<path d="M60.0749 143.481C60.5265 144.208 64.5294 145.209 66.0741 145.209C66.8856 145.209 68.23 145.522 68.7666 144.731C68.797 144.687 65.592 143.033 65.3713 142.873C65.1507 142.714 63.3648 141.458 63.4225 141.298C63.4225 141.298 67.6122 129.945 69.7036 127.039C71.795 124.132 73.3398 121.946 73.9747 120.13C74.6097 118.313 75.18 116.592 75.18 116.592L69.364 116.31C69.0916 117.744 68.4662 119.087 67.5443 120.218C65.9994 122.129 63.908 125.857 63.8096 129.402C63.711 132.946 59.6232 142.755 60.0749 143.481Z" stroke="rgba(46, 53, 58, 1)" stroke-width="1" stroke-linejoin="round" stroke-linecap="round" >
</path>
<path d="M90.7387 123.96C89.9781 120.462 89.3808 117.848 88.4607 116.15C87.5409 114.452 86.6175 112.9 86.6175 112.9L82.52 117.053C83.4066 118.213 83.99 119.577 84.2174 121.019C84.601 123.447 85.9724 127.495 88.5491 129.937C91.1256 132.378 95.678 142.647 96.5199 142.793C97.5076 142.97 99.0149 141.707 99.7482 141.194C100.682 140.542 102.824 139.211 103.143 138.059C103.527 136.735 102.165 137.401 101.591 137.828C100.848 138.382 97.1377 138.847 97.1377 138.847C97.1377 138.847 91.4991 127.458 90.7387 123.96Z"   fill="#B5FFD2" >
</path>
<g style="mix-blend-mode:multiply">
<path d="M88.4592 116.16C87.5327 114.462 86.613 112.91 86.613 112.91L82.52 117.054C83.2149 117.963 83.7214 119.002 84.0099 120.11C85.8569 119.781 87.6732 119.298 89.44 118.667C89.1991 117.8 88.8705 116.96 88.4592 116.16Z"   fill="#92E3A9" >
</path>
</g>
<path d="M96.5199 142.793C97.5076 142.97 99.0149 141.707 99.7482 141.194C100.682 140.542 102.824 139.211 103.143 138.059C103.527 136.735 102.165 137.401 101.591 137.828C100.848 138.382 97.1377 138.847 97.1377 138.847C97.1377 138.847 91.4991 127.458 90.7387 123.96C89.9781 120.462 89.3808 117.848 88.4607 116.15C87.5409 114.452 86.6175 112.9 86.6175 112.9L82.52 117.053C83.4066 118.213 83.99 119.577 84.2174 121.019C84.601 123.447 85.9724 127.495 88.5491 129.937C91.1256 132.378 95.678 142.647 96.5199 142.793Z" stroke="rgba(46, 53, 58, 1)" stroke-width="1" stroke-linejoin="round" stroke-linecap="round" >
</path>
<path d="M103.153 138.056C103.537 136.732 102.174 137.397 101.6 137.825C100.856 138.379 97.1432 138.844 97.1432 138.844C97.1432 138.844 96.7424 137.961 96.1581 136.63C95.4344 137.202 94.6339 137.669 93.78 138.019C95.054 140.528 96.1105 142.732 96.525 142.803C97.5135 142.98 99.0219 141.717 99.7557 141.204C100.68 140.538 102.823 139.207 103.153 138.056Z" stroke="rgba(46, 53, 58, 1)" stroke-width="1" stroke-linejoin="round" stroke-linecap="round"    fill="#B5FFD2" >
</path>
<path d="M84.4103 101.006L82.7127 97.7296L69.4944 97.3901L69.4845 98.1676L66.3301 115.575C67.7527 116.486 69.2676 117.244 70.8494 117.836C73.3346 118.74 77.64 118.515 77.64 118.515L79.3376 110.044L80.0167 117.952C80.0167 117.952 83.2932 118.291 85.6666 117.84C88.0399 117.388 91.8801 114.9 91.8801 114.9L84.4103 101.006Z"   fill="#B5FFD2" >
</path>
<g style="mix-blend-mode:multiply">
<path d="M79.4386 108.16C80.586 106.724 81 98.2826 81 98.2826L69.4792 97.4102L69.4792 98.1705L68.04 106.069C71.2647 107.108 78.5458 109.274 79.4386 108.16Z"   fill="#92E3A9" >
</path>
</g>
<path d="M82.7127 97.7296L69.4944 97.3901L69.4845 98.1676L66.3301 115.575C67.7527 116.486 69.2676 117.244 70.8494 117.836C73.3346 118.74 77.64 118.515 77.64 118.515L79.3376 110.044L80.0167 117.952C80.0167 117.952 83.2932 118.291 85.6666 117.84C88.0399 117.388 91.8801 114.9 91.8801 114.9L84.4103 101.006L82.7127 97.7296Z" stroke="rgba(46, 53, 58, 1)" stroke-width="1"   >
</path>
<path d="M88.9701 84.4217L95.4194 86.1199L98.05 78.308L88.2064 76.4399L86 83.6574L88.9701 84.4217Z" stroke="rgba(46, 53, 58, 1)" stroke-width="1" stroke-linejoin="round" stroke-linecap="round"    fill="#2E353A" >
</path>
<path    stroke="rgba(181, 255, 210, 1)" stroke-width="1" stroke-linejoin="round" stroke-linecap="round"  d="M94.33 81.8101L90.23 80.8101">
</path>
<path    stroke="rgba(181, 255, 210, 1)" stroke-width="1" stroke-linejoin="round" stroke-linecap="round"  d="M93.9301 82.8101L89.8301 81.8101">
</path>
<path d="M87.5199 81.0259C87.5199 81.0259 87.8593 82.5546 87.4351 83.0643C87.208 83.3452 86.9521 83.6014 86.6714 83.8286L88.9623 84.4231C88.9623 84.4231 87.4351 85.5272 86.7563 85.6971C86.0838 85.8267 85.4035 85.9118 84.7199 85.9519L81.9199 88.1601L82.2593 84.8478C82.2593 84.8478 84.2956 83.7437 84.9744 82.8095C85.6532 81.8752 86.4169 80.2616 86.7563 80.0067C87.0957 79.7519 88.7926 78.9026 89.132 78.6478C89.4714 78.3931 89.9804 78.9026 89.3865 79.4122C88.7926 79.9219 87.5199 81.0259 87.5199 81.0259Z" stroke="rgba(46, 53, 58, 1)" stroke-width="1" stroke-linejoin="round" stroke-linecap="round"    fill="#B5FFD2" >
</path>
<path d="M73.0981 66.3067C73.0981 66.3067 70.3823 70.263 69.7033 74.8944C69.0244 79.5262 69.4793 98.172 69.4793 98.172C69.4793 98.172 73.0914 99.6388 75.9294 99.6388C78.7675 99.6388 82.933 99.8665 83.0585 98.2805C83.1841 96.6947 82.2675 78.5075 81.0217 74.1C80.1587 71.2241 78.902 68.4816 77.2873 65.9502C77.2873 65.9502 74.4561 64.0454 73.0981 66.3067Z" stroke="rgba(46, 53, 58, 1)" stroke-width="1" stroke-linejoin="round" stroke-linecap="round"    fill="#2E353A" >
</path>
<path d="M79.291 69.7402L75.6399 93.0017L78.8664 94.1902L80.3099 71.8627L79.291 69.7402Z" stroke="rgba(46, 53, 58, 1)" stroke-width="1" stroke-linejoin="round" stroke-linecap="round"    fill="#B5FFD2" >
</path>
<path d="M71.21 57.2866C71.21 57.2866 71.6618 59.4318 72.5689 60.5621C73.476 61.6925 75.1679 62.2593 75.1679 62.2593L74.682 64.8288L77.8484 66.7499L79.0102 61.2409L79.35 54.6899C79.35 54.6899 71.4206 56.0443 71.21 57.2866Z" stroke="rgba(46, 53, 58, 1)" stroke-width="1" stroke-linejoin="round" stroke-linecap="round"    fill="#B5FFD2" >
</path>
<path d="M71.21 57.2957C71.21 57.2957 71.6618 59.4416 72.5688 60.5723C73.4758 61.703 75.1676 62.27 75.1676 62.27C75.1676 62.27 77.8852 61.4789 78.106 59.6725C78.2691 58.3686 78.0245 56.131 77.8717 54.98C75.565 55.4349 71.373 56.3958 71.21 57.2957Z" stroke="rgba(46, 53, 58, 1)" stroke-width="1" stroke-linejoin="round" stroke-linecap="round"    fill="#2E353A" >
</path>
<path d="M74.0313 57.0643C73.3554 57.6313 73.5762 59.2133 74.371 60.0044C75.1657 60.7954 76.1812 60.1164 76.1812 60.1164C76.1812 60.1164 76.633 61.583 77.4243 62.2621C78.2157 62.9411 80.926 63.3926 81.8397 62.7136C82.7534 62.0346 82.4036 59.5494 82.4036 59.5494C82.4036 59.5494 83.9863 58.7584 83.8742 58.1915C83.7621 57.6244 82.6277 57.1729 82.6277 56.7248C82.6182 56.3828 82.5807 56.0422 82.5156 55.7063L82.5156 54.7998L77.3191 55.9304C77.3191 55.9304 76.6364 58.5343 75.8382 57.8554C75.8382 57.8554 74.7072 56.4973 74.0313 57.0643Z"   fill="#B5FFD2" >
</path>
<g opacity="0.5" style="mix-blend-mode:multiply">
<g style="mix-blend-mode:multiply" opacity="0.5">
<path d="M77.3112 55.9423C77.1655 56.4887 76.9535 57.0151 76.6799 57.5098C78.7163 57.418 80.8918 57.2888 82.8399 57.1188C82.7201 57.0232 82.6402 56.8861 82.616 56.7346C82.6064 56.392 82.569 56.0509 82.5039 55.7145L82.5039 54.7998L77.3112 55.9423Z"   fill="#92E3A9" >
</path>
</g>
</g>
<path d="M77.3191 55.9304C77.3191 55.9304 76.6364 58.5343 75.8382 57.8554C75.8382 57.8554 74.7072 56.4973 74.0313 57.0643C73.3554 57.6313 73.5762 59.2133 74.371 60.0044C75.1657 60.7954 76.1812 60.1164 76.1812 60.1164C76.1812 60.1164 76.633 61.583 77.4243 62.2621C78.2157 62.9411 80.926 63.3926 81.8397 62.7136C82.7534 62.0346 82.4036 59.5494 82.4036 59.5494C82.4036 59.5494 83.9863 58.7584 83.8742 58.1915C83.7621 57.6244 82.6277 57.1729 82.6277 56.7248C82.6182 56.3828 82.5807 56.0422 82.5156 55.7063L82.5156 54.7998L77.3191 55.9304Z" stroke="rgba(46, 53, 58, 1)" stroke-width="1" stroke-linejoin="round" stroke-linecap="round" >
</path>
<path d="M71.2119 57.29L82.5099 54.7947C82.5099 54.7947 80.9274 49.2574 79.0088 48.8059C77.0901 48.3544 73.3581 48.1269 71.324 50.1639C69.2899 52.2009 71.2119 57.29 71.2119 57.29Z" stroke="rgba(46, 53, 58, 1)" stroke-width="1" stroke-linejoin="round" stroke-linecap="round"    fill="#B5FFD2" >
</path>
<path d="M78.78 55.715C80.2687 56.0461 81.7785 56.2734 83.2986 56.3951C85.3355 56.5073 89.9628 54.695 88.8356 54.5828C87.7086 54.4706 82.5076 54.8106 82.5076 54.8106L78.78 55.715Z" stroke="rgba(46, 53, 58, 1)" stroke-width="1" stroke-linejoin="round" stroke-linecap="round"    fill="#2E353A" >
</path>
<path d="M73.5484 63.9302L72.53 66.1905L77.6151 69.3502L78.63 66.1905L73.5484 63.9302Z" stroke="rgba(46, 53, 58, 1)" stroke-width="1" stroke-linejoin="round" stroke-linecap="round"    fill="#B5FFD2" >
</path>
<path d="M60.1796 101.91C60.0135 101.639 59.96 101.313 60.03 101.002L63.0792 87.5601L81.16 92.2286L79.2823 105.449C79.2516 105.666 79.1756 105.873 79.059 106.058C78.9426 106.242 78.7884 106.4 78.6066 106.521C78.4249 106.642 78.2196 106.723 78.0042 106.759C77.7888 106.795 77.5683 106.785 77.3571 106.73L60.9196 102.458C60.6111 102.379 60.3458 102.182 60.1796 101.91Z" stroke="rgba(46, 53, 58, 1)" stroke-width="1" stroke-linejoin="round" stroke-linecap="round"    fill="#B5FFD2" >
</path>
<path    stroke="rgba(46, 53, 58, 1)" stroke-width="1" stroke-linejoin="round" stroke-linecap="round"  d="M63.0801 87.5601C63.0801 87.5601 67.3488 97.9136 69.9635 99.2715C72.5784 100.629 81.1701 92.2378 81.1701 92.2378">
</path>
<path d="M81.3535 96.3775C81.3535 96.3775 80.6744 97.9603 81.0139 98.2998C81.3535 98.6396 82.3722 96.7171 82.3722 96.1534C82.3722 95.5895 82.4842 92.5362 82.148 91.7381C81.8119 90.9398 72.2028 85.0711 72.2028 85.0711L66.6648 83.0298C66.6648 83.0298 65.5342 85.516 65.8737 86.4262C66.2131 87.3363 80.2229 92.4173 80.2229 92.4173C80.2229 92.4173 80.3348 94.3362 80.6744 94.7948C80.9652 95.2923 81.1933 95.8239 81.3535 96.3775Z" stroke="rgba(46, 53, 58, 1)" stroke-width="1" stroke-linejoin="round" stroke-linecap="round"    fill="#B5FFD2" >
</path>
<path    stroke="rgba(46, 53, 58, 1)" stroke-width="1" stroke-linejoin="round" stroke-linecap="round"  d="M72.8727 69.4702L66.3201 83.3626L72.1937 85.0602L76.9401 73.989">
</path>
<path    stroke="rgba(181, 255, 210, 1)" stroke-width="1" stroke-linejoin="round" stroke-linecap="round"  d="M76.5199 75.3599L72.1899 85.0599">
</path>
<path    stroke="rgba(181, 255, 210, 1)" stroke-width="1" stroke-linejoin="round" stroke-linecap="round"  d="M77.21 76.7402L75.03 78.9202">
</path>
<path    stroke="rgba(46, 53, 58, 1)" stroke-width="1" stroke-linejoin="round" stroke-linecap="round"  d="M77.3901 117.029C74.3416 117.243 71.2931 116.613 68.5801 115.21">
</path>
<path    stroke="rgba(46, 53, 58, 1)" stroke-width="1" stroke-linejoin="round" stroke-linecap="round"  d="M67.8601 114.81C67.3726 114.517 67.1101 114.32 67.1101 114.32">
</path>
<path    stroke="rgba(46, 53, 58, 1)" stroke-width="1" stroke-linejoin="round" stroke-linecap="round"  d="M90.3799 113.64C89.9775 113.919 89.5602 114.176 89.1299 114.41">
</path>
<path    stroke="rgba(46, 53, 58, 1)" stroke-width="1" stroke-linejoin="round" stroke-linecap="round"  d="M88.1299 114.92C85.7045 115.987 83.0893 116.555 80.4399 116.59">
</path>
<path    stroke="rgba(46, 53, 58, 1)" stroke-width="1" stroke-linejoin="round" stroke-linecap="round"  d="M81.7501 105.81L79.3101 110.03">
</path>
<path    stroke="rgba(46, 53, 58, 1)" stroke-width="1" stroke-linejoin="round" stroke-linecap="round"  d="M83.5099 105.2L79.45 109.81">
</path>
<path    stroke="rgba(46, 53, 58, 1)" stroke-width="1" stroke-linejoin="round" stroke-linecap="round"  d="M69.0797 107.98L68.74 110.485C69.5745 111.068 70.4903 111.525 71.458 111.842C73.0854 112.385 76.5543 112.317 76.5543 112.317L77.03 109.942C77.03 109.942 70.9959 109.263 69.7762 108.245">
</path>
<path    stroke="rgba(46, 53, 58, 1)" stroke-width="1" stroke-linejoin="round" stroke-linecap="round"  d="M68.6741 111.43C68.6741 111.43 67.7238 113.734 68.3347 114.277C68.9457 114.82 73.2764 116.442 74.4439 116.313C75.6114 116.184 76.2699 113.334 76.2699 113.334">
</path>
<path d="M103.153 138.063C103.537 136.737 102.175 137.403 101.601 137.831C100.857 138.385 97.1444 138.851 97.1444 138.851L96.6927 137.831C96.0121 138.43 95.2329 138.906 94.3899 139.238C95.3782 141.202 96.1697 142.745 96.5161 142.803C97.5044 142.98 99.0125 141.716 99.7461 141.202C100.68 140.547 102.823 139.215 103.153 138.063Z" stroke="rgba(46, 53, 58, 1)" stroke-width="1" stroke-linejoin="round" stroke-linecap="round"    fill="#2E353A" >
</path>
<path d="M100.332 139.912C98.8029 140.707 97.0193 141.672 95.99 142.212C96.2142 142.552 96.3942 142.773 96.5165 142.793C97.5052 142.97 99.0135 141.706 99.7474 141.193C100.682 140.541 102.825 139.209 103.145 138.058C103.308 137.501 103.145 137.297 102.89 137.28C102.326 138.224 101.449 139.342 100.332 139.912Z" stroke="rgba(46, 53, 58, 1)" stroke-width="1" stroke-linejoin="round" stroke-linecap="round"    fill="#B5FFD2" >
</path>
<path d="M65.3883 142.873C65.2253 142.751 63.3818 141.458 63.4395 141.298C63.4395 141.298 63.8096 140.304 64.3766 138.83C63.4043 138.709 62.4537 138.453 61.5518 138.07C60.6487 140.813 59.8543 143.142 60.0784 143.481C60.5299 144.208 64.5328 145.209 66.0775 145.209C66.8889 145.209 68.2334 145.521 68.7699 144.73C68.8004 144.686 65.5954 143.026 65.3883 142.873Z" stroke="rgba(46, 53, 58, 1)" stroke-width="1" stroke-linejoin="round" stroke-linecap="round"    fill="#B5FFD2" >
</path>
<path d="M68.7699 144.731C68.8004 144.687 65.5957 143.034 65.3751 142.875C65.1544 142.715 63.3688 141.46 63.4265 141.301L63.7863 140.34C62.8508 140.171 61.9343 139.909 61.0502 139.56C60.3712 141.616 59.8925 143.204 60.0657 143.482C60.5172 144.208 64.5196 145.209 66.0642 145.209C66.8891 145.209 68.2335 145.521 68.7699 144.731Z" stroke="rgba(46, 53, 58, 1)" stroke-width="1" stroke-linejoin="round" stroke-linecap="round"    fill="#2E353A" >
</path>
<path d="M65.6008 144.459C63.5185 144.333 61.2052 143.478 60.0741 143.01C60.0287 143.164 60.0287 143.328 60.0741 143.482C60.5259 144.208 64.5308 145.209 66.0763 145.209C66.8882 145.209 68.2333 145.521 68.77 144.73C68.6185 144.623 68.4583 144.529 68.2911 144.449C67.3956 144.514 66.4967 144.518 65.6008 144.459Z" stroke="rgba(46, 53, 58, 1)" stroke-width="1" stroke-linejoin="round" stroke-linecap="round"    fill="#B5FFD2" >
</path>
<path    stroke="rgba(0, 0, 0, 1)" stroke-width="1" stroke-linejoin="round" stroke-linecap="round"  d="M76.3799 51.4102L78.1899 55.7202">
</path>
<path    stroke="rgba(0, 0, 0, 1)" stroke-width="1" stroke-linejoin="round" stroke-linecap="round"  d="M76.0376 48.7998C75.5807 49.3679 76.1501 50.6198 76.1501 50.6198">
</path>
</svg>
